<svg xmlns="http://www.w3.org/2000/svg" version="1.1" xmlns:xlink="http://www.w3.org/1999/xlink" xmlns:svgjs="http://svgjs.dev/svgjs" width="1440" height="560" preserveAspectRatio="none" viewBox="0 0 1440 560"><g mask="url(&quot;#SvgjsMask4420&quot;)" fill="none"><rect width="1440" height="560" x="0" y="0" fill="url(&quot;#SvgjsLinearGradient4421&quot;)"></rect><path d="M-52.95 388.57L-52.95 388.57" stroke="rgba(208, 172, 211, 1)" stroke-width="1.5"></path><path d="M-52.95 388.57L42.36 396.96" stroke="rgba(208, 172, 211, 1)" stroke-width="1.5"></path><path d="M-52.95 388.57L-62.03 516.87" stroke="rgba(208, 172, 211, 1)" stroke-width="1.5"></path><path d="M-52.95 388.57L55.39 530.35" stroke="rgba(208, 172, 211, 1)" stroke-width="1.5"></path><path d="M-52.95 388.57L-57.37 637.7" stroke="rgba(208, 172, 211, 1)" stroke-width="1.5"></path><path d="M-62.03 516.87L-62.03 516.87" stroke="rgba(208, 172, 211, 1)" stroke-width="1.5"></path><path d="M-62.03 516.87L55.39 530.35" stroke="rgba(208, 172, 211, 1)" stroke-width="1.5"></path><path d="M-62.03 516.87L-57.37 637.7" stroke="rgba(208, 172, 211, 1)" stroke-width="1.5"></path><path d="M-62.03 516.87L42.36 396.96" stroke="rgba(208, 172, 211, 1)" stroke-width="1.5"></path><path d="M-57.37 637.7L-57.37 637.7" stroke="rgba(208, 172, 211, 1)" stroke-width="1.5"></path><path d="M-57.37 637.7L55.39 530.35" stroke="rgba(208, 172, 211, 1)" stroke-width="1.5"></path><path d="M42.36 396.96L42.36 396.96" stroke="rgba(208, 172, 211, 1)" stroke-width="1.5"></path><path d="M42.36 396.96L55.39 530.35" stroke="rgba(208, 172, 211, 1)" stroke-width="1.5"></path><path d="M55.39 530.35L55.39 530.35" stroke="rgba(208, 172, 211, 1)" stroke-width="1.5"></path><path d="M225.98 377.66L225.98 377.66" stroke="rgba(208, 172, 211, 1)" stroke-width="1.5"></path><path d="M225.98 377.66L338.43 371.06" stroke="rgba(208, 172, 211, 1)" stroke-width="1.5"></path><path d="M225.98 377.66L259.62 515.25" stroke="rgba(208, 172, 211, 1)" stroke-width="1.5"></path><path d="M225.98 377.66L348.62 487.54" stroke="rgba(208, 172, 211, 1)" stroke-width="1.5"></path><path d="M225.98 377.66L42.36 396.96" stroke="rgba(208, 172, 211, 1)" stroke-width="1.5"></path><path d="M259.62 515.25L259.62 515.25" stroke="rgba(208, 172, 211, 1)" stroke-width="1.5"></path><path d="M259.62 515.25L348.62 487.54" stroke="rgba(208, 172, 211, 1)" stroke-width="1.5"></path><path d="M259.62 515.25L192.14 656.88" stroke="rgba(208, 172, 211, 1)" stroke-width="1.5"></path><path d="M259.62 515.25L338.43 371.06" stroke="rgba(208, 172, 211, 1)" stroke-width="1.5"></path><path d="M259.62 515.25L55.39 530.35" stroke="rgba(208, 172, 211, 1)" stroke-width="1.5"></path><path d="M192.14 656.88L192.14 656.88" stroke="rgba(208, 172, 211, 1)" stroke-width="1.5"></path><path d="M192.14 656.88L366.36 712.41" stroke="rgba(208, 172, 211, 1)" stroke-width="1.5"></path><path d="M192.14 656.88L55.39 530.35" stroke="rgba(208, 172, 211, 1)" stroke-width="1.5"></path><path d="M338.43 371.06L338.43 371.06" stroke="rgba(208, 172, 211, 1)" stroke-width="1.5"></path><path d="M338.43 371.06L348.62 487.54" stroke="rgba(208, 172, 211, 1)" stroke-width="1.5"></path><path d="M348.62 487.54L348.62 487.54" stroke="rgba(208, 172, 211, 1)" stroke-width="1.5"></path><path d="M366.36 712.41L366.36 712.41" stroke="rgba(208, 172, 211, 1)" stroke-width="1.5"></path><path d="M366.36 712.41L513.47 649.32" stroke="rgba(208, 172, 211, 1)" stroke-width="1.5"></path><path d="M366.36 712.41L259.62 515.25" stroke="rgba(208, 172, 211, 1)" stroke-width="1.5"></path><path d="M366.36 712.41L348.62 487.54" stroke="rgba(208, 172, 211, 1)" stroke-width="1.5"></path><path d="M366.36 712.41L522.71 521.02" stroke="rgba(208, 172, 211, 1)" stroke-width="1.5"></path><path d="M366.36 712.41L338.43 371.06" stroke="rgba(208, 172, 211, 1)" stroke-width="1.5"></path><path d="M514.86 399.5L514.86 399.5" stroke="rgba(208, 172, 211, 1)" stroke-width="1.5"></path><path d="M514.86 399.5L522.71 521.02" stroke="rgba(208, 172, 211, 1)" stroke-width="1.5"></path><path d="M514.86 399.5L646.42 399.28" stroke="rgba(208, 172, 211, 1)" stroke-width="1.5"></path><path d="M514.86 399.5L338.43 371.06" stroke="rgba(208, 172, 211, 1)" stroke-width="1.5"></path><path d="M522.71 521.02L522.71 521.02" stroke="rgba(208, 172, 211, 1)" stroke-width="1.5"></path><path d="M522.71 521.02L513.47 649.32" stroke="rgba(208, 172, 211, 1)" stroke-width="1.5"></path><path d="M522.71 521.02L646.42 399.28" stroke="rgba(208, 172, 211, 1)" stroke-width="1.5"></path><path d="M522.71 521.02L696.86 528.74" stroke="rgba(208, 172, 211, 1)" stroke-width="1.5"></path><path d="M522.71 521.02L348.62 487.54" stroke="rgba(208, 172, 211, 1)" stroke-width="1.5"></path><path d="M513.47 649.32L513.47 649.32" stroke="rgba(208, 172, 211, 1)" stroke-width="1.5"></path><path d="M670.95 214.36L670.95 214.36" stroke="rgba(208, 172, 211, 1)" stroke-width="1.5"></path><path d="M670.95 214.36L803.53 251.95" stroke="rgba(208, 172, 211, 1)" stroke-width="1.5"></path><path d="M670.95 214.36L646.42 399.28" stroke="rgba(208, 172, 211, 1)" stroke-width="1.5"></path><path d="M646.42 399.28L646.42 399.28" stroke="rgba(208, 172, 211, 1)" stroke-width="1.5"></path><path d="M646.42 399.28L696.86 528.74" stroke="rgba(208, 172, 211, 1)" stroke-width="1.5"></path><path d="M696.86 528.74L696.86 528.74" stroke="rgba(208, 172, 211, 1)" stroke-width="1.5"></path><path d="M696.86 528.74L806.8 527.38" stroke="rgba(208, 172, 211, 1)" stroke-width="1.5"></path><path d="M696.86 528.74L708.12 642.11" stroke="rgba(208, 172, 211, 1)" stroke-width="1.5"></path><path d="M696.86 528.74L797.4 701.83" stroke="rgba(208, 172, 211, 1)" stroke-width="1.5"></path><path d="M696.86 528.74L513.47 649.32" stroke="rgba(208, 172, 211, 1)" stroke-width="1.5"></path><path d="M708.12 642.11L708.12 642.11" stroke="rgba(208, 172, 211, 1)" stroke-width="1.5"></path><path d="M708.12 642.11L797.4 701.83" stroke="rgba(208, 172, 211, 1)" stroke-width="1.5"></path><path d="M708.12 642.11L806.8 527.38" stroke="rgba(208, 172, 211, 1)" stroke-width="1.5"></path><path d="M803.53 251.95L803.53 251.95" stroke="rgba(208, 172, 211, 1)" stroke-width="1.5"></path><path d="M803.53 251.95L813.92 339.84" stroke="rgba(208, 172, 211, 1)" stroke-width="1.5"></path><path d="M813.92 339.84L813.92 339.84" stroke="rgba(208, 172, 211, 1)" stroke-width="1.5"></path><path d="M813.92 339.84L646.42 399.28" stroke="rgba(208, 172, 211, 1)" stroke-width="1.5"></path><path d="M813.92 339.84L982.51 399.82" stroke="rgba(208, 172, 211, 1)" stroke-width="1.5"></path><path d="M813.92 339.84L806.8 527.38" stroke="rgba(208, 172, 211, 1)" stroke-width="1.5"></path><path d="M813.92 339.84L670.95 214.36" stroke="rgba(208, 172, 211, 1)" stroke-width="1.5"></path><path d="M813.92 339.84L971.49 193.99" stroke="rgba(208, 172, 211, 1)" stroke-width="1.5"></path><path d="M806.8 527.38L806.8 527.38" stroke="rgba(208, 172, 211, 1)" stroke-width="1.5"></path><path d="M806.8 527.38L797.4 701.83" stroke="rgba(208, 172, 211, 1)" stroke-width="1.5"></path><path d="M806.8 527.38L646.42 399.28" stroke="rgba(208, 172, 211, 1)" stroke-width="1.5"></path><path d="M797.4 701.83L797.4 701.83" stroke="rgba(208, 172, 211, 1)" stroke-width="1.5"></path><path d="M797.4 701.83L965.91 690.5" stroke="rgba(208, 172, 211, 1)" stroke-width="1.5"></path><path d="M952.52 -58.12L952.52 -58.12" stroke="rgba(208, 172, 211, 1)" stroke-width="1.5"></path><path d="M952.52 -58.12L990.79 110.46" stroke="rgba(208, 172, 211, 1)" stroke-width="1.5"></path><path d="M952.52 -58.12L1158.88 -111.15" stroke="rgba(208, 172, 211, 1)" stroke-width="1.5"></path><path d="M952.52 -58.12L1119.36 109" stroke="rgba(208, 172, 211, 1)" stroke-width="1.5"></path><path d="M952.52 -58.12L971.49 193.99" stroke="rgba(208, 172, 211, 1)" stroke-width="1.5"></path><path d="M990.79 110.46L990.79 110.46" stroke="rgba(208, 172, 211, 1)" stroke-width="1.5"></path><path d="M990.79 110.46L971.49 193.99" stroke="rgba(208, 172, 211, 1)" stroke-width="1.5"></path><path d="M990.79 110.46L1119.36 109" stroke="rgba(208, 172, 211, 1)" stroke-width="1.5"></path><path d="M990.79 110.46L1149.15 248.97" stroke="rgba(208, 172, 211, 1)" stroke-width="1.5"></path><path d="M990.79 110.46L803.53 251.95" stroke="rgba(208, 172, 211, 1)" stroke-width="1.5"></path><path d="M990.79 110.46L1158.88 -111.15" stroke="rgba(208, 172, 211, 1)" stroke-width="1.5"></path><path d="M971.49 193.99L971.49 193.99" stroke="rgba(208, 172, 211, 1)" stroke-width="1.5"></path><path d="M971.49 193.99L1119.36 109" stroke="rgba(208, 172, 211, 1)" stroke-width="1.5"></path><path d="M971.49 193.99L803.53 251.95" stroke="rgba(208, 172, 211, 1)" stroke-width="1.5"></path><path d="M971.49 193.99L1149.15 248.97" stroke="rgba(208, 172, 211, 1)" stroke-width="1.5"></path><path d="M971.49 193.99L982.51 399.82" stroke="rgba(208, 172, 211, 1)" stroke-width="1.5"></path><path d="M982.51 399.82L982.51 399.82" stroke="rgba(208, 172, 211, 1)" stroke-width="1.5"></path><path d="M982.51 399.82L1010.57 496.7" stroke="rgba(208, 172, 211, 1)" stroke-width="1.5"></path><path d="M1010.57 496.7L1010.57 496.7" stroke="rgba(208, 172, 211, 1)" stroke-width="1.5"></path><path d="M1010.57 496.7L1116.3 545.07" stroke="rgba(208, 172, 211, 1)" stroke-width="1.5"></path><path d="M1010.57 496.7L1134.82 409.7" stroke="rgba(208, 172, 211, 1)" stroke-width="1.5"></path><path d="M965.91 690.5L965.91 690.5" stroke="rgba(208, 172, 211, 1)" stroke-width="1.5"></path><path d="M965.91 690.5L1010.57 496.7" stroke="rgba(208, 172, 211, 1)" stroke-width="1.5"></path><path d="M965.91 690.5L1116.3 545.07" stroke="rgba(208, 172, 211, 1)" stroke-width="1.5"></path><path d="M965.91 690.5L806.8 527.38" stroke="rgba(208, 172, 211, 1)" stroke-width="1.5"></path><path d="M1158.88 -111.15L1158.88 -111.15" stroke="rgba(208, 172, 211, 1)" stroke-width="1.5"></path><path d="M1158.88 -111.15L1253.41 -43.4" stroke="rgba(208, 172, 211, 1)" stroke-width="1.5"></path><path d="M1119.36 109L1119.36 109" stroke="rgba(208, 172, 211, 1)" stroke-width="1.5"></path><path d="M1119.36 109L1149.15 248.97" stroke="rgba(208, 172, 211, 1)" stroke-width="1.5"></path><path d="M1119.36 109L1288.13 101.07" stroke="rgba(208, 172, 211, 1)" stroke-width="1.5"></path><path d="M1119.36 109L1254.9 218.28" stroke="rgba(208, 172, 211, 1)" stroke-width="1.5"></path><path d="M1149.15 248.97L1149.15 248.97" stroke="rgba(208, 172, 211, 1)" stroke-width="1.5"></path><path d="M1149.15 248.97L1254.9 218.28" stroke="rgba(208, 172, 211, 1)" stroke-width="1.5"></path><path d="M1149.15 248.97L1249.13 344.83" stroke="rgba(208, 172, 211, 1)" stroke-width="1.5"></path><path d="M1134.82 409.7L1134.82 409.7" stroke="rgba(208, 172, 211, 1)" stroke-width="1.5"></path><path d="M1134.82 409.7L1249.13 344.83" stroke="rgba(208, 172, 211, 1)" stroke-width="1.5"></path><path d="M1134.82 409.7L1116.3 545.07" stroke="rgba(208, 172, 211, 1)" stroke-width="1.5"></path><path d="M1134.82 409.7L982.51 399.82" stroke="rgba(208, 172, 211, 1)" stroke-width="1.5"></path><path d="M1116.3 545.07L1116.3 545.07" stroke="rgba(208, 172, 211, 1)" stroke-width="1.5"></path><path d="M1116.3 545.07L1284.67 541.34" stroke="rgba(208, 172, 211, 1)" stroke-width="1.5"></path><path d="M1116.3 545.07L982.51 399.82" stroke="rgba(208, 172, 211, 1)" stroke-width="1.5"></path><path d="M1253.41 -43.4L1253.41 -43.4" stroke="rgba(208, 172, 211, 1)" stroke-width="1.5"></path><path d="M1253.41 -43.4L1288.13 101.07" stroke="rgba(208, 172, 211, 1)" stroke-width="1.5"></path><path d="M1253.41 -43.4L1414.71 -109.03" stroke="rgba(208, 172, 211, 1)" stroke-width="1.5"></path><path d="M1288.13 101.07L1288.13 101.07" stroke="rgba(208, 172, 211, 1)" stroke-width="1.5"></path><path d="M1288.13 101.07L1254.9 218.28" stroke="rgba(208, 172, 211, 1)" stroke-width="1.5"></path><path d="M1288.13 101.07L1456.32 47.11" stroke="rgba(208, 172, 211, 1)" stroke-width="1.5"></path><path d="M1254.9 218.28L1254.9 218.28" stroke="rgba(208, 172, 211, 1)" stroke-width="1.5"></path><path d="M1254.9 218.28L1249.13 344.83" stroke="rgba(208, 172, 211, 1)" stroke-width="1.5"></path><path d="M1254.9 218.28L1449.15 253.21" stroke="rgba(208, 172, 211, 1)" stroke-width="1.5"></path><path d="M1254.9 218.28L1134.82 409.7" stroke="rgba(208, 172, 211, 1)" stroke-width="1.5"></path><path d="M1249.13 344.83L1249.13 344.83" stroke="rgba(208, 172, 211, 1)" stroke-width="1.5"></path><path d="M1284.67 541.34L1284.67 541.34" stroke="rgba(208, 172, 211, 1)" stroke-width="1.5"></path><path d="M1284.67 541.34L1399.33 544.21" stroke="rgba(208, 172, 211, 1)" stroke-width="1.5"></path><path d="M1284.67 541.34L1310.63 670.16" stroke="rgba(208, 172, 211, 1)" stroke-width="1.5"></path><path d="M1284.67 541.34L1393.88 645.27" stroke="rgba(208, 172, 211, 1)" stroke-width="1.5"></path><path d="M1284.67 541.34L1134.82 409.7" stroke="rgba(208, 172, 211, 1)" stroke-width="1.5"></path><path d="M1310.63 670.16L1310.63 670.16" stroke="rgba(208, 172, 211, 1)" stroke-width="1.5"></path><path d="M1310.63 670.16L1393.88 645.27" stroke="rgba(208, 172, 211, 1)" stroke-width="1.5"></path><path d="M1310.63 670.16L1399.33 544.21" stroke="rgba(208, 172, 211, 1)" stroke-width="1.5"></path><path d="M1310.63 670.16L1116.3 545.07" stroke="rgba(208, 172, 211, 1)" stroke-width="1.5"></path><path d="M1414.71 -109.03L1414.71 -109.03" stroke="rgba(208, 172, 211, 1)" stroke-width="1.5"></path><path d="M1414.71 -109.03L1456.32 47.11" stroke="rgba(208, 172, 211, 1)" stroke-width="1.5"></path><path d="M1456.32 47.11L1456.32 47.11" stroke="rgba(208, 172, 211, 1)" stroke-width="1.5"></path><path d="M1456.32 47.11L1550.12 89.77" stroke="rgba(208, 172, 211, 1)" stroke-width="1.5"></path><path d="M1449.15 253.21L1449.15 253.21" stroke="rgba(208, 172, 211, 1)" stroke-width="1.5"></path><path d="M1449.15 253.21L1575.49 212.31" stroke="rgba(208, 172, 211, 1)" stroke-width="1.5"></path><path d="M1449.15 253.21L1550.12 89.77" stroke="rgba(208, 172, 211, 1)" stroke-width="1.5"></path><path d="M1399.33 544.21L1399.33 544.21" stroke="rgba(208, 172, 211, 1)" stroke-width="1.5"></path><path d="M1399.33 544.21L1393.88 645.27" stroke="rgba(208, 172, 211, 1)" stroke-width="1.5"></path><path d="M1399.33 544.21L1583.83 527.42" stroke="rgba(208, 172, 211, 1)" stroke-width="1.5"></path><path d="M1399.33 544.21L1561.74 647.89" stroke="rgba(208, 172, 211, 1)" stroke-width="1.5"></path><path d="M1399.33 544.21L1249.13 344.83" stroke="rgba(208, 172, 211, 1)" stroke-width="1.5"></path><path d="M1393.88 645.27L1393.88 645.27" stroke="rgba(208, 172, 211, 1)" stroke-width="1.5"></path><path d="M1393.88 645.27L1561.74 647.89" stroke="rgba(208, 172, 211, 1)" stroke-width="1.5"></path><path d="M1393.88 645.27L1583.83 527.42" stroke="rgba(208, 172, 211, 1)" stroke-width="1.5"></path><path d="M1608.24 -65.38L1608.24 -65.38" stroke="rgba(208, 172, 211, 1)" stroke-width="1.5"></path><path d="M1608.24 -65.38L1550.12 89.77" stroke="rgba(208, 172, 211, 1)" stroke-width="1.5"></path><path d="M1608.24 -65.38L1456.32 47.11" stroke="rgba(208, 172, 211, 1)" stroke-width="1.5"></path><path d="M1608.24 -65.38L1414.71 -109.03" stroke="rgba(208, 172, 211, 1)" stroke-width="1.5"></path><path d="M1550.12 89.77L1550.12 89.77" stroke="rgba(208, 172, 211, 1)" stroke-width="1.5"></path><path d="M1550.12 89.77L1575.49 212.31" stroke="rgba(208, 172, 211, 1)" stroke-width="1.5"></path><path d="M1550.12 89.77L1414.71 -109.03" stroke="rgba(208, 172, 211, 1)" stroke-width="1.5"></path><path d="M1550.12 89.77L1288.13 101.07" stroke="rgba(208, 172, 211, 1)" stroke-width="1.5"></path><path d="M1575.49 212.31L1575.49 212.31" stroke="rgba(208, 172, 211, 1)" stroke-width="1.5"></path><path d="M1599.95 381.5L1599.95 381.5" stroke="rgba(208, 172, 211, 1)" stroke-width="1.5"></path><path d="M1599.95 381.5L1583.83 527.42" stroke="rgba(208, 172, 211, 1)" stroke-width="1.5"></path><path d="M1599.95 381.5L1575.49 212.31" stroke="rgba(208, 172, 211, 1)" stroke-width="1.5"></path><path d="M1583.83 527.42L1583.83 527.42" stroke="rgba(208, 172, 211, 1)" stroke-width="1.5"></path><path d="M1583.83 527.42L1561.74 647.89" stroke="rgba(208, 172, 211, 1)" stroke-width="1.5"></path><path d="M1583.83 527.42L1284.67 541.34" stroke="rgba(208, 172, 211, 1)" stroke-width="1.5"></path><path d="M1561.74 647.89L1561.74 647.89" stroke="rgba(208, 172, 211, 1)" stroke-width="1.5"></path><circle r="5" cx="-52.95" cy="388.57" fill="rgba(208, 172, 211, 1)"></circle><circle r="5" cx="-62.03" cy="516.87" fill="rgba(208, 172, 211, 1)"></circle><circle r="5" cx="-57.37" cy="637.7" fill="rgba(208, 172, 211, 1)"></circle><circle r="5" cx="42.36" cy="396.96" fill="rgba(208, 172, 211, 1)"></circle><circle r="5" cx="55.39" cy="530.35" fill="rgba(208, 172, 211, 1)"></circle><circle r="5" cx="225.98" cy="377.66" fill="rgba(208, 172, 211, 1)"></circle><circle r="5" cx="259.62" cy="515.25" fill="rgba(208, 172, 211, 1)"></circle><circle r="5" cx="192.14" cy="656.88" fill="rgba(208, 172, 211, 1)"></circle><circle r="5" cx="338.43" cy="371.06" fill="rgba(208, 172, 211, 1)"></circle><circle r="5" cx="348.62" cy="487.54" fill="rgba(208, 172, 211, 1)"></circle><circle r="5" cx="366.36" cy="712.41" fill="rgba(208, 172, 211, 1)"></circle><circle r="5" cx="514.86" cy="399.5" fill="rgba(208, 172, 211, 1)"></circle><circle r="5" cx="522.71" cy="521.02" fill="rgba(208, 172, 211, 1)"></circle><circle r="5" cx="513.47" cy="649.32" fill="rgba(208, 172, 211, 1)"></circle><circle r="5" cx="670.95" cy="214.36" fill="rgba(208, 172, 211, 1)"></circle><circle r="5" cx="646.42" cy="399.28" fill="rgba(208, 172, 211, 1)"></circle><circle r="5" cx="696.86" cy="528.74" fill="rgba(208, 172, 211, 1)"></circle><circle r="5" cx="708.12" cy="642.11" fill="rgba(208, 172, 211, 1)"></circle><circle r="5" cx="803.53" cy="251.95" fill="rgba(208, 172, 211, 1)"></circle><circle r="5" cx="813.92" cy="339.84" fill="rgba(208, 172, 211, 1)"></circle><circle r="5" cx="806.8" cy="527.38" fill="rgba(208, 172, 211, 1)"></circle><circle r="5" cx="797.4" cy="701.83" fill="rgba(208, 172, 211, 1)"></circle><circle r="5" cx="952.52" cy="-58.12" fill="rgba(208, 172, 211, 1)"></circle><circle r="5" cx="990.79" cy="110.46" fill="rgba(208, 172, 211, 1)"></circle><circle r="5" cx="971.49" cy="193.99" fill="rgba(208, 172, 211, 1)"></circle><circle r="5" cx="982.51" cy="399.82" fill="rgba(208, 172, 211, 1)"></circle><circle r="5" cx="1010.57" cy="496.7" fill="rgba(208, 172, 211, 1)"></circle><circle r="5" cx="965.91" cy="690.5" fill="rgba(208, 172, 211, 1)"></circle><circle r="5" cx="1158.88" cy="-111.15" fill="rgba(208, 172, 211, 1)"></circle><circle r="5" cx="1119.36" cy="109" fill="rgba(208, 172, 211, 1)"></circle><circle r="5" cx="1149.15" cy="248.97" fill="rgba(208, 172, 211, 1)"></circle><circle r="5" cx="1134.82" cy="409.7" fill="rgba(208, 172, 211, 1)"></circle><circle r="5" cx="1116.3" cy="545.07" fill="rgba(208, 172, 211, 1)"></circle><circle r="5" cx="1253.41" cy="-43.4" fill="rgba(208, 172, 211, 1)"></circle><circle r="5" cx="1288.13" cy="101.07" fill="rgba(208, 172, 211, 1)"></circle><circle r="5" cx="1254.9" cy="218.28" fill="rgba(208, 172, 211, 1)"></circle><circle r="5" cx="1249.13" cy="344.83" fill="rgba(208, 172, 211, 1)"></circle><circle r="5" cx="1284.67" cy="541.34" fill="rgba(208, 172, 211, 1)"></circle><circle r="5" cx="1310.63" cy="670.16" fill="rgba(208, 172, 211, 1)"></circle><circle r="5" cx="1414.71" cy="-109.03" fill="rgba(208, 172, 211, 1)"></circle><circle r="5" cx="1456.32" cy="47.11" fill="rgba(208, 172, 211, 1)"></circle><circle r="5" cx="1449.15" cy="253.21" fill="rgba(208, 172, 211, 1)"></circle><circle r="5" cx="1399.33" cy="544.21" fill="rgba(208, 172, 211, 1)"></circle><circle r="5" cx="1393.88" cy="645.27" fill="rgba(208, 172, 211, 1)"></circle><circle r="5" cx="1608.24" cy="-65.38" fill="rgba(208, 172, 211, 1)"></circle><circle r="5" cx="1550.12" cy="89.77" fill="rgba(208, 172, 211, 1)"></circle><circle r="5" cx="1575.49" cy="212.31" fill="rgba(208, 172, 211, 1)"></circle><circle r="5" cx="1599.95" cy="381.5" fill="rgba(208, 172, 211, 1)"></circle><circle r="5" cx="1583.83" cy="527.42" fill="rgba(208, 172, 211, 1)"></circle><circle r="5" cx="1561.74" cy="647.89" fill="rgba(208, 172, 211, 1)"></circle><path d="M44.6 534.96L44.6 534.96" stroke="hsl(168, 40.9%, 89.5%)" stroke-width="1.5"></path><path d="M44.6 534.96L-57.91 543.61" stroke="hsl(168, 40.9%, 89.5%)" stroke-width="1.5"></path><path d="M44.6 534.96L92.49 705.04" stroke="hsl(168, 40.9%, 89.5%)" stroke-width="1.5"></path><path d="M366.26 669.93L366.26 669.93" stroke="hsl(168, 40.9%, 89.5%)" stroke-width="1.5"></path><path d="M366.26 669.93L360.65 558.94" stroke="hsl(168, 40.9%, 89.5%)" stroke-width="1.5"></path><path d="M366.26 669.93L230.77 658.7" stroke="hsl(168, 40.9%, 89.5%)" stroke-width="1.5"></path><path d="M366.26 669.93L506.63 640.39" stroke="hsl(168, 40.9%, 89.5%)" stroke-width="1.5"></path><path d="M366.26 669.93L236.25 524.91" stroke="hsl(168, 40.9%, 89.5%)" stroke-width="1.5"></path><path d="M366.26 669.93L519.39 488.32" stroke="hsl(168, 40.9%, 89.5%)" stroke-width="1.5"></path><path d="M519.39 488.32L519.39 488.32" stroke="hsl(168, 40.9%, 89.5%)" stroke-width="1.5"></path><path d="M519.39 488.32L511.7 405.93" stroke="hsl(168, 40.9%, 89.5%)" stroke-width="1.5"></path><path d="M519.39 488.32L648.77 524.35" stroke="hsl(168, 40.9%, 89.5%)" stroke-width="1.5"></path><path d="M519.39 488.32L506.63 640.39" stroke="hsl(168, 40.9%, 89.5%)" stroke-width="1.5"></path><path d="M519.39 488.32L360.65 558.94" stroke="hsl(168, 40.9%, 89.5%)" stroke-width="1.5"></path><path d="M519.39 488.32L236.25 524.91" stroke="hsl(168, 40.9%, 89.5%)" stroke-width="1.5"></path><path d="M705.11 711.7L705.11 711.7" stroke="hsl(168, 40.9%, 89.5%)" stroke-width="1.5"></path><path d="M705.11 711.7L814.9 678.5" stroke="hsl(168, 40.9%, 89.5%)" stroke-width="1.5"></path><path d="M705.11 711.7L648.77 524.35" stroke="hsl(168, 40.9%, 89.5%)" stroke-width="1.5"></path><path d="M1393.04 383.94L1393.04 383.94" stroke="hsl(168, 40.9%, 89.5%)" stroke-width="1.5"></path><path d="M1393.04 383.94L1297.46 377.99" stroke="hsl(168, 40.9%, 89.5%)" stroke-width="1.5"></path><path d="M1393.04 383.94L1405.69 252.88" stroke="hsl(168, 40.9%, 89.5%)" stroke-width="1.5"></path><path d="M1393.04 383.94L1413.43 560.45" stroke="hsl(168, 40.9%, 89.5%)" stroke-width="1.5"></path><path d="M1393.04 383.94L1590.38 376.55" stroke="hsl(168, 40.9%, 89.5%)" stroke-width="1.5"></path><path d="M1393.04 383.94L1258.52 215.47" stroke="hsl(168, 40.9%, 89.5%)" stroke-width="1.5"></path><path d="M1393.04 383.94L1538.19 553.64" stroke="hsl(168, 40.9%, 89.5%)" stroke-width="1.5"></path><path d="M1411.71 675.98L1411.71 675.98" stroke="hsl(168, 40.9%, 89.5%)" stroke-width="1.5"></path><path d="M1411.71 675.98L1413.43 560.45" stroke="hsl(168, 40.9%, 89.5%)" stroke-width="1.5"></path><path d="M1411.71 675.98L1240.07 709.81" stroke="hsl(168, 40.9%, 89.5%)" stroke-width="1.5"></path><path d="M1411.71 675.98L1538.19 553.64" stroke="hsl(168, 40.9%, 89.5%)" stroke-width="1.5"></path><path d="M-57.91 543.61L-57.91 543.61" stroke="hsl(168, 40.9%, 89.5%)" stroke-width="1.5"></path><path d="M-57.91 543.61L-52.13 685.51" stroke="hsl(168, 40.9%, 89.5%)" stroke-width="1.5"></path><path d="M-52.13 685.51L-52.13 685.51" stroke="hsl(168, 40.9%, 89.5%)" stroke-width="1.5"></path><path d="M-52.13 685.51L92.49 705.04" stroke="hsl(168, 40.9%, 89.5%)" stroke-width="1.5"></path><path d="M92.49 705.04L92.49 705.04" stroke="hsl(168, 40.9%, 89.5%)" stroke-width="1.5"></path><path d="M92.49 705.04L230.77 658.7" stroke="hsl(168, 40.9%, 89.5%)" stroke-width="1.5"></path><path d="M236.25 524.91L236.25 524.91" stroke="hsl(168, 40.9%, 89.5%)" stroke-width="1.5"></path><path d="M236.25 524.91L360.65 558.94" stroke="hsl(168, 40.9%, 89.5%)" stroke-width="1.5"></path><path d="M236.25 524.91L230.77 658.7" stroke="hsl(168, 40.9%, 89.5%)" stroke-width="1.5"></path><path d="M236.25 524.91L44.6 534.96" stroke="hsl(168, 40.9%, 89.5%)" stroke-width="1.5"></path><path d="M236.25 524.91L92.49 705.04" stroke="hsl(168, 40.9%, 89.5%)" stroke-width="1.5"></path><path d="M230.77 658.7L230.77 658.7" stroke="hsl(168, 40.9%, 89.5%)" stroke-width="1.5"></path><path d="M230.77 658.7L360.65 558.94" stroke="hsl(168, 40.9%, 89.5%)" stroke-width="1.5"></path><path d="M230.77 658.7L44.6 534.96" stroke="hsl(168, 40.9%, 89.5%)" stroke-width="1.5"></path><path d="M360.65 558.94L360.65 558.94" stroke="hsl(168, 40.9%, 89.5%)" stroke-width="1.5"></path><path d="M360.65 558.94L506.63 640.39" stroke="hsl(168, 40.9%, 89.5%)" stroke-width="1.5"></path><path d="M511.7 405.93L511.7 405.93" stroke="hsl(168, 40.9%, 89.5%)" stroke-width="1.5"></path><path d="M511.7 405.93L648.77 524.35" stroke="hsl(168, 40.9%, 89.5%)" stroke-width="1.5"></path><path d="M506.63 640.39L506.63 640.39" stroke="hsl(168, 40.9%, 89.5%)" stroke-width="1.5"></path><path d="M648.77 524.35L648.77 524.35" stroke="hsl(168, 40.9%, 89.5%)" stroke-width="1.5"></path><path d="M648.77 524.35L506.63 640.39" stroke="hsl(168, 40.9%, 89.5%)" stroke-width="1.5"></path><path d="M648.77 524.35L847.24 554.59" stroke="hsl(168, 40.9%, 89.5%)" stroke-width="1.5"></path><path d="M648.77 524.35L826.01 389.32" stroke="hsl(168, 40.9%, 89.5%)" stroke-width="1.5"></path><path d="M826.01 389.32L826.01 389.32" stroke="hsl(168, 40.9%, 89.5%)" stroke-width="1.5"></path><path d="M826.01 389.32L983.73 404.9" stroke="hsl(168, 40.9%, 89.5%)" stroke-width="1.5"></path><path d="M826.01 389.32L847.24 554.59" stroke="hsl(168, 40.9%, 89.5%)" stroke-width="1.5"></path><path d="M826.01 389.32L958.35 537.46" stroke="hsl(168, 40.9%, 89.5%)" stroke-width="1.5"></path><path d="M826.01 389.32L814.9 678.5" stroke="hsl(168, 40.9%, 89.5%)" stroke-width="1.5"></path><path d="M847.24 554.59L847.24 554.59" stroke="hsl(168, 40.9%, 89.5%)" stroke-width="1.5"></path><path d="M847.24 554.59L958.35 537.46" stroke="hsl(168, 40.9%, 89.5%)" stroke-width="1.5"></path><path d="M847.24 554.59L814.9 678.5" stroke="hsl(168, 40.9%, 89.5%)" stroke-width="1.5"></path><path d="M847.24 554.59L1000.78 677.89" stroke="hsl(168, 40.9%, 89.5%)" stroke-width="1.5"></path><path d="M814.9 678.5L814.9 678.5" stroke="hsl(168, 40.9%, 89.5%)" stroke-width="1.5"></path><path d="M814.9 678.5L1000.78 677.89" stroke="hsl(168, 40.9%, 89.5%)" stroke-width="1.5"></path><path d="M814.9 678.5L958.35 537.46" stroke="hsl(168, 40.9%, 89.5%)" stroke-width="1.5"></path><path d="M814.9 678.5L648.77 524.35" stroke="hsl(168, 40.9%, 89.5%)" stroke-width="1.5"></path><path d="M814.9 678.5L1088.16 672.52" stroke="hsl(168, 40.9%, 89.5%)" stroke-width="1.5"></path><path d="M983.73 404.9L983.73 404.9" stroke="hsl(168, 40.9%, 89.5%)" stroke-width="1.5"></path><path d="M983.73 404.9L958.35 537.46" stroke="hsl(168, 40.9%, 89.5%)" stroke-width="1.5"></path><path d="M983.73 404.9L1124.1 366.59" stroke="hsl(168, 40.9%, 89.5%)" stroke-width="1.5"></path><path d="M983.73 404.9L1107.57 557.52" stroke="hsl(168, 40.9%, 89.5%)" stroke-width="1.5"></path><path d="M983.73 404.9L847.24 554.59" stroke="hsl(168, 40.9%, 89.5%)" stroke-width="1.5"></path><path d="M983.73 404.9L1125.33 190.06" stroke="hsl(168, 40.9%, 89.5%)" stroke-width="1.5"></path><path d="M958.35 537.46L958.35 537.46" stroke="hsl(168, 40.9%, 89.5%)" stroke-width="1.5"></path><path d="M958.35 537.46L1000.78 677.89" stroke="hsl(168, 40.9%, 89.5%)" stroke-width="1.5"></path><path d="M958.35 537.46L1107.57 557.52" stroke="hsl(168, 40.9%, 89.5%)" stroke-width="1.5"></path><path d="M958.35 537.46L1088.16 672.52" stroke="hsl(168, 40.9%, 89.5%)" stroke-width="1.5"></path><path d="M1000.78 677.89L1000.78 677.89" stroke="hsl(168, 40.9%, 89.5%)" stroke-width="1.5"></path><path d="M1000.78 677.89L1088.16 672.52" stroke="hsl(168, 40.9%, 89.5%)" stroke-width="1.5"></path><path d="M1125.33 190.06L1125.33 190.06" stroke="hsl(168, 40.9%, 89.5%)" stroke-width="1.5"></path><path d="M1125.33 190.06L1258.52 215.47" stroke="hsl(168, 40.9%, 89.5%)" stroke-width="1.5"></path><path d="M1125.33 190.06L1124.1 366.59" stroke="hsl(168, 40.9%, 89.5%)" stroke-width="1.5"></path><path d="M1125.33 190.06L1284.12 60.21" stroke="hsl(168, 40.9%, 89.5%)" stroke-width="1.5"></path><path d="M1124.1 366.59L1124.1 366.59" stroke="hsl(168, 40.9%, 89.5%)" stroke-width="1.5"></path><path d="M1124.1 366.59L1297.46 377.99" stroke="hsl(168, 40.9%, 89.5%)" stroke-width="1.5"></path><path d="M1124.1 366.59L1107.57 557.52" stroke="hsl(168, 40.9%, 89.5%)" stroke-width="1.5"></path><path d="M1124.1 366.59L1258.52 215.47" stroke="hsl(168, 40.9%, 89.5%)" stroke-width="1.5"></path><path d="M1124.1 366.59L958.35 537.46" stroke="hsl(168, 40.9%, 89.5%)" stroke-width="1.5"></path><path d="M1107.57 557.52L1107.57 557.52" stroke="hsl(168, 40.9%, 89.5%)" stroke-width="1.5"></path><path d="M1107.57 557.52L1088.16 672.52" stroke="hsl(168, 40.9%, 89.5%)" stroke-width="1.5"></path><path d="M1107.57 557.52L1000.78 677.89" stroke="hsl(168, 40.9%, 89.5%)" stroke-width="1.5"></path><path d="M1107.57 557.52L1240.07 709.81" stroke="hsl(168, 40.9%, 89.5%)" stroke-width="1.5"></path><path d="M1088.16 672.52L1088.16 672.52" stroke="hsl(168, 40.9%, 89.5%)" stroke-width="1.5"></path><path d="M1088.16 672.52L1240.07 709.81" stroke="hsl(168, 40.9%, 89.5%)" stroke-width="1.5"></path><path d="M1280.96 -50.79L1280.96 -50.79" stroke="hsl(168, 40.9%, 89.5%)" stroke-width="1.5"></path><path d="M1280.96 -50.79L1284.12 60.21" stroke="hsl(168, 40.9%, 89.5%)" stroke-width="1.5"></path><path d="M1280.96 -50.79L1424.93 -94.24" stroke="hsl(168, 40.9%, 89.5%)" stroke-width="1.5"></path><path d="M1284.12 60.21L1284.12 60.21" stroke="hsl(168, 40.9%, 89.5%)" stroke-width="1.5"></path><path d="M1284.12 60.21L1394.19 75.23" stroke="hsl(168, 40.9%, 89.5%)" stroke-width="1.5"></path><path d="M1284.12 60.21L1258.52 215.47" stroke="hsl(168, 40.9%, 89.5%)" stroke-width="1.5"></path><path d="M1284.12 60.21L1424.93 -94.24" stroke="hsl(168, 40.9%, 89.5%)" stroke-width="1.5"></path><path d="M1284.12 60.21L1405.69 252.88" stroke="hsl(168, 40.9%, 89.5%)" stroke-width="1.5"></path><path d="M1258.52 215.47L1258.52 215.47" stroke="hsl(168, 40.9%, 89.5%)" stroke-width="1.5"></path><path d="M1258.52 215.47L1405.69 252.88" stroke="hsl(168, 40.9%, 89.5%)" stroke-width="1.5"></path><path d="M1258.52 215.47L1297.46 377.99" stroke="hsl(168, 40.9%, 89.5%)" stroke-width="1.5"></path><path d="M1258.52 215.47L1394.19 75.23" stroke="hsl(168, 40.9%, 89.5%)" stroke-width="1.5"></path><path d="M1297.46 377.99L1297.46 377.99" stroke="hsl(168, 40.9%, 89.5%)" stroke-width="1.5"></path><path d="M1297.46 377.99L1405.69 252.88" stroke="hsl(168, 40.9%, 89.5%)" stroke-width="1.5"></path><path d="M1297.46 377.99L1413.43 560.45" stroke="hsl(168, 40.9%, 89.5%)" stroke-width="1.5"></path><path d="M1297.46 377.99L1125.33 190.06" stroke="hsl(168, 40.9%, 89.5%)" stroke-width="1.5"></path><path d="M1240.07 709.81L1240.07 709.81" stroke="hsl(168, 40.9%, 89.5%)" stroke-width="1.5"></path><path d="M1240.07 709.81L1413.43 560.45" stroke="hsl(168, 40.9%, 89.5%)" stroke-width="1.5"></path><path d="M1240.07 709.81L1000.78 677.89" stroke="hsl(168, 40.9%, 89.5%)" stroke-width="1.5"></path><path d="M1424.93 -94.24L1424.93 -94.24" stroke="hsl(168, 40.9%, 89.5%)" stroke-width="1.5"></path><path d="M1424.93 -94.24L1560.88 -65.25" stroke="hsl(168, 40.9%, 89.5%)" stroke-width="1.5"></path><path d="M1424.93 -94.24L1394.19 75.23" stroke="hsl(168, 40.9%, 89.5%)" stroke-width="1.5"></path><path d="M1424.93 -94.24L1592.22 44.26" stroke="hsl(168, 40.9%, 89.5%)" stroke-width="1.5"></path><path d="M1424.93 -94.24L1405.69 252.88" stroke="hsl(168, 40.9%, 89.5%)" stroke-width="1.5"></path><path d="M1394.19 75.23L1394.19 75.23" stroke="hsl(168, 40.9%, 89.5%)" stroke-width="1.5"></path><path d="M1394.19 75.23L1280.96 -50.79" stroke="hsl(168, 40.9%, 89.5%)" stroke-width="1.5"></path><path d="M1405.69 252.88L1405.69 252.88" stroke="hsl(168, 40.9%, 89.5%)" stroke-width="1.5"></path><path d="M1405.69 252.88L1568.06 241.15" stroke="hsl(168, 40.9%, 89.5%)" stroke-width="1.5"></path><path d="M1405.69 252.88L1394.19 75.23" stroke="hsl(168, 40.9%, 89.5%)" stroke-width="1.5"></path><path d="M1413.43 560.45L1413.43 560.45" stroke="hsl(168, 40.9%, 89.5%)" stroke-width="1.5"></path><path d="M1413.43 560.45L1538.19 553.64" stroke="hsl(168, 40.9%, 89.5%)" stroke-width="1.5"></path><path d="M1560.88 -65.25L1560.88 -65.25" stroke="hsl(168, 40.9%, 89.5%)" stroke-width="1.5"></path><path d="M1560.88 -65.25L1592.22 44.26" stroke="hsl(168, 40.9%, 89.5%)" stroke-width="1.5"></path><path d="M1560.88 -65.25L1394.19 75.23" stroke="hsl(168, 40.9%, 89.5%)" stroke-width="1.5"></path><path d="M1560.88 -65.25L1280.96 -50.79" stroke="hsl(168, 40.9%, 89.5%)" stroke-width="1.5"></path><path d="M1560.88 -65.25L1284.12 60.21" stroke="hsl(168, 40.9%, 89.5%)" stroke-width="1.5"></path><path d="M1592.22 44.26L1592.22 44.26" stroke="hsl(168, 40.9%, 89.5%)" stroke-width="1.5"></path><path d="M1568.06 241.15L1568.06 241.15" stroke="hsl(168, 40.9%, 89.5%)" stroke-width="1.5"></path><path d="M1568.06 241.15L1590.38 376.55" stroke="hsl(168, 40.9%, 89.5%)" stroke-width="1.5"></path><path d="M1568.06 241.15L1592.22 44.26" stroke="hsl(168, 40.9%, 89.5%)" stroke-width="1.5"></path><path d="M1590.38 376.55L1590.38 376.55" stroke="hsl(168, 40.9%, 89.5%)" stroke-width="1.5"></path><path d="M1590.38 376.55L1538.19 553.64" stroke="hsl(168, 40.9%, 89.5%)" stroke-width="1.5"></path><path d="M1538.19 553.64L1538.19 553.64" stroke="hsl(168, 40.9%, 89.5%)" stroke-width="1.5"></path><path d="M1538.19 553.64L1601.52 699.58" stroke="hsl(168, 40.9%, 89.5%)" stroke-width="1.5"></path><path d="M1601.52 699.58L1601.52 699.58" stroke="hsl(168, 40.9%, 89.5%)" stroke-width="1.5"></path><path d="M1601.52 699.58L1411.71 675.98" stroke="hsl(168, 40.9%, 89.5%)" stroke-width="1.5"></path><path d="M1601.52 699.58L1413.43 560.45" stroke="hsl(168, 40.9%, 89.5%)" stroke-width="1.5"></path><circle r="25" cx="44.6" cy="534.96" fill="url(&quot;#SvgjsRadialGradient4422&quot;)"></circle><circle r="25" cx="366.26" cy="669.93" fill="url(&quot;#SvgjsRadialGradient4422&quot;)"></circle><circle r="25" cx="519.39" cy="488.32" fill="url(&quot;#SvgjsRadialGradient4422&quot;)"></circle><circle r="25" cx="705.11" cy="711.7" fill="url(&quot;#SvgjsRadialGradient4422&quot;)"></circle><circle r="25" cx="1393.04" cy="383.94" fill="url(&quot;#SvgjsRadialGradient4422&quot;)"></circle><circle r="25" cx="1411.71" cy="675.98" fill="url(&quot;#SvgjsRadialGradient4422&quot;)"></circle><circle r="5" cx="-57.91" cy="543.61" fill="#c7e8e1"></circle><circle r="5" cx="-52.13" cy="685.51" fill="#c7e8e1"></circle><circle r="5" cx="92.49" cy="705.04" fill="#c7e8e1"></circle><circle r="5" cx="236.25" cy="524.91" fill="#c7e8e1"></circle><circle r="5" cx="230.77" cy="658.7" fill="#c7e8e1"></circle><circle r="5" cx="360.65" cy="558.94" fill="#c7e8e1"></circle><circle r="5" cx="511.7" cy="405.93" fill="#c7e8e1"></circle><circle r="5" cx="506.63" cy="640.39" fill="#c7e8e1"></circle><circle r="5" cx="648.77" cy="524.35" fill="#c7e8e1"></circle><circle r="5" cx="826.01" cy="389.32" fill="#c7e8e1"></circle><circle r="5" cx="847.24" cy="554.59" fill="#c7e8e1"></circle><circle r="5" cx="814.9" cy="678.5" fill="#c7e8e1"></circle><circle r="5" cx="983.73" cy="404.9" fill="#c7e8e1"></circle><circle r="5" cx="958.35" cy="537.46" fill="#c7e8e1"></circle><circle r="5" cx="1000.78" cy="677.89" fill="#c7e8e1"></circle><circle r="5" cx="1125.33" cy="190.06" fill="#c7e8e1"></circle><circle r="5" cx="1124.1" cy="366.59" fill="#c7e8e1"></circle><circle r="5" cx="1107.57" cy="557.52" fill="#c7e8e1"></circle><circle r="5" cx="1088.16" cy="672.52" fill="#c7e8e1"></circle><circle r="5" cx="1280.96" cy="-50.79" fill="#c7e8e1"></circle><circle r="5" cx="1284.12" cy="60.21" fill="#c7e8e1"></circle><circle r="5" cx="1258.52" cy="215.47" fill="#c7e8e1"></circle><circle r="5" cx="1297.46" cy="377.99" fill="#c7e8e1"></circle><circle r="5" cx="1240.07" cy="709.81" fill="#c7e8e1"></circle><circle r="5" cx="1424.93" cy="-94.24" fill="#c7e8e1"></circle><circle r="5" cx="1394.19" cy="75.23" fill="#c7e8e1"></circle><circle r="5" cx="1405.69" cy="252.88" fill="#c7e8e1"></circle><circle r="5" cx="1413.43" cy="560.45" fill="#c7e8e1"></circle><circle r="5" cx="1560.88" cy="-65.25" fill="#c7e8e1"></circle><circle r="5" cx="1592.22" cy="44.26" fill="#c7e8e1"></circle><circle r="5" cx="1568.06" cy="241.15" fill="#c7e8e1"></circle><circle r="5" cx="1590.38" cy="376.55" fill="#c7e8e1"></circle><circle r="5" cx="1538.19" cy="553.64" fill="#c7e8e1"></circle><circle r="5" cx="1601.52" cy="699.58" fill="#c7e8e1"></circle></g><defs><mask id="SvgjsMask4420"><rect width="1440" height="560" fill="#ffffff"></rect></mask><linearGradient x1="15.28%" y1="-39.29%" x2="84.72%" y2="139.29%" gradientUnits="userSpaceOnUse" id="SvgjsLinearGradient4421"><stop stop-color="rgba(170, 199, 225, 1)" offset="0"></stop><stop stop-color="rgba(14, 42, 71, 1)" offset="1"></stop></linearGradient><radialGradient id="SvgjsRadialGradient4422"><stop stop-color="#ffffff" offset="0.1"></stop><stop stop-color="rgba(143, 208, 195, 1)" offset="0.2"></stop><stop stop-color="rgba(143, 208, 195, 0)" offset="1"></stop></radialGradient></defs></svg>