<svg xmlns="http://www.w3.org/2000/svg" version="1.1" xmlns:xlink="http://www.w3.org/1999/xlink" xmlns:svgjs="http://svgjs.dev/svgjs" width="1440" height="560" preserveAspectRatio="none" viewBox="0 0 1440 560"><g mask="url(&quot;#SvgjsMask4834&quot;)" fill="none"><rect width="1440" height="560" x="0" y="0" fill="url(&quot;#SvgjsLinearGradient4835&quot;)"></rect><path d="M-65.73 526.5L-65.73 526.5" stroke="rgba(208, 172, 211, 1)" stroke-width="1.5"></path><path d="M-65.73 526.5L38.86 405.96" stroke="rgba(208, 172, 211, 1)" stroke-width="1.5"></path><path d="M-65.73 526.5L99.97 538.56" stroke="rgba(208, 172, 211, 1)" stroke-width="1.5"></path><path d="M38.86 405.96L38.86 405.96" stroke="rgba(208, 172, 211, 1)" stroke-width="1.5"></path><path d="M38.86 405.96L99.97 538.56" stroke="rgba(208, 172, 211, 1)" stroke-width="1.5"></path><path d="M38.86 405.96L260.73 529.8" stroke="rgba(208, 172, 211, 1)" stroke-width="1.5"></path><path d="M38.86 405.96L67.09 705.41" stroke="rgba(208, 172, 211, 1)" stroke-width="1.5"></path><path d="M99.97 538.56L99.97 538.56" stroke="rgba(208, 172, 211, 1)" stroke-width="1.5"></path><path d="M99.97 538.56L260.73 529.8" stroke="rgba(208, 172, 211, 1)" stroke-width="1.5"></path><path d="M99.97 538.56L67.09 705.41" stroke="rgba(208, 172, 211, 1)" stroke-width="1.5"></path><path d="M67.09 705.41L67.09 705.41" stroke="rgba(208, 172, 211, 1)" stroke-width="1.5"></path><path d="M67.09 705.41L-65.73 526.5" stroke="rgba(208, 172, 211, 1)" stroke-width="1.5"></path><path d="M260.73 529.8L260.73 529.8" stroke="rgba(208, 172, 211, 1)" stroke-width="1.5"></path><path d="M260.73 529.8L389.08 523.6" stroke="rgba(208, 172, 211, 1)" stroke-width="1.5"></path><path d="M389.08 523.6L389.08 523.6" stroke="rgba(208, 172, 211, 1)" stroke-width="1.5"></path><path d="M389.08 523.6L490.52 495.29" stroke="rgba(208, 172, 211, 1)" stroke-width="1.5"></path><path d="M389.08 523.6L395.44 645.8" stroke="rgba(208, 172, 211, 1)" stroke-width="1.5"></path><path d="M389.08 523.6L507.97 647.69" stroke="rgba(208, 172, 211, 1)" stroke-width="1.5"></path><path d="M389.08 523.6L557.95 389.36" stroke="rgba(208, 172, 211, 1)" stroke-width="1.5"></path><path d="M389.08 523.6L676.71 504.33" stroke="rgba(208, 172, 211, 1)" stroke-width="1.5"></path><path d="M395.44 645.8L395.44 645.8" stroke="rgba(208, 172, 211, 1)" stroke-width="1.5"></path><path d="M395.44 645.8L507.97 647.69" stroke="rgba(208, 172, 211, 1)" stroke-width="1.5"></path><path d="M395.44 645.8L260.73 529.8" stroke="rgba(208, 172, 211, 1)" stroke-width="1.5"></path><path d="M395.44 645.8L490.52 495.29" stroke="rgba(208, 172, 211, 1)" stroke-width="1.5"></path><path d="M557.95 389.36L557.95 389.36" stroke="rgba(208, 172, 211, 1)" stroke-width="1.5"></path><path d="M557.95 389.36L490.52 495.29" stroke="rgba(208, 172, 211, 1)" stroke-width="1.5"></path><path d="M557.95 389.36L676.71 504.33" stroke="rgba(208, 172, 211, 1)" stroke-width="1.5"></path><path d="M490.52 495.29L490.52 495.29" stroke="rgba(208, 172, 211, 1)" stroke-width="1.5"></path><path d="M490.52 495.29L507.97 647.69" stroke="rgba(208, 172, 211, 1)" stroke-width="1.5"></path><path d="M490.52 495.29L676.71 504.33" stroke="rgba(208, 172, 211, 1)" stroke-width="1.5"></path><path d="M507.97 647.69L507.97 647.69" stroke="rgba(208, 172, 211, 1)" stroke-width="1.5"></path><path d="M507.97 647.69L645.09 711.22" stroke="rgba(208, 172, 211, 1)" stroke-width="1.5"></path><path d="M507.97 647.69L676.71 504.33" stroke="rgba(208, 172, 211, 1)" stroke-width="1.5"></path><path d="M507.97 647.69L557.95 389.36" stroke="rgba(208, 172, 211, 1)" stroke-width="1.5"></path><path d="M676.71 504.33L676.71 504.33" stroke="rgba(208, 172, 211, 1)" stroke-width="1.5"></path><path d="M676.71 504.33L819.07 510.5" stroke="rgba(208, 172, 211, 1)" stroke-width="1.5"></path><path d="M676.71 504.33L797.94 384.35" stroke="rgba(208, 172, 211, 1)" stroke-width="1.5"></path><path d="M676.71 504.33L645.09 711.22" stroke="rgba(208, 172, 211, 1)" stroke-width="1.5"></path><path d="M645.09 711.22L645.09 711.22" stroke="rgba(208, 172, 211, 1)" stroke-width="1.5"></path><path d="M645.09 711.22L857.88 655.74" stroke="rgba(208, 172, 211, 1)" stroke-width="1.5"></path><path d="M645.09 711.22L395.44 645.8" stroke="rgba(208, 172, 211, 1)" stroke-width="1.5"></path><path d="M851.26 77.67L851.26 77.67" stroke="rgba(208, 172, 211, 1)" stroke-width="1.5"></path><path d="M851.26 77.67L849.2 192.4" stroke="rgba(208, 172, 211, 1)" stroke-width="1.5"></path><path d="M851.26 77.67L994.78 101.83" stroke="rgba(208, 172, 211, 1)" stroke-width="1.5"></path><path d="M851.26 77.67L973.74 -38.5" stroke="rgba(208, 172, 211, 1)" stroke-width="1.5"></path><path d="M851.26 77.67L977.6 247.96" stroke="rgba(208, 172, 211, 1)" stroke-width="1.5"></path><path d="M851.26 77.67L1106.74 192.52" stroke="rgba(208, 172, 211, 1)" stroke-width="1.5"></path><path d="M849.2 192.4L849.2 192.4" stroke="rgba(208, 172, 211, 1)" stroke-width="1.5"></path><path d="M849.2 192.4L977.6 247.96" stroke="rgba(208, 172, 211, 1)" stroke-width="1.5"></path><path d="M797.94 384.35L797.94 384.35" stroke="rgba(208, 172, 211, 1)" stroke-width="1.5"></path><path d="M797.94 384.35L819.07 510.5" stroke="rgba(208, 172, 211, 1)" stroke-width="1.5"></path><path d="M797.94 384.35L964.7 404.17" stroke="rgba(208, 172, 211, 1)" stroke-width="1.5"></path><path d="M797.94 384.35L849.2 192.4" stroke="rgba(208, 172, 211, 1)" stroke-width="1.5"></path><path d="M797.94 384.35L977.6 247.96" stroke="rgba(208, 172, 211, 1)" stroke-width="1.5"></path><path d="M819.07 510.5L819.07 510.5" stroke="rgba(208, 172, 211, 1)" stroke-width="1.5"></path><path d="M819.07 510.5L857.88 655.74" stroke="rgba(208, 172, 211, 1)" stroke-width="1.5"></path><path d="M819.07 510.5L964.7 404.17" stroke="rgba(208, 172, 211, 1)" stroke-width="1.5"></path><path d="M819.07 510.5L1012.13 546.8" stroke="rgba(208, 172, 211, 1)" stroke-width="1.5"></path><path d="M819.07 510.5L645.09 711.22" stroke="rgba(208, 172, 211, 1)" stroke-width="1.5"></path><path d="M857.88 655.74L857.88 655.74" stroke="rgba(208, 172, 211, 1)" stroke-width="1.5"></path><path d="M857.88 655.74L1012.13 546.8" stroke="rgba(208, 172, 211, 1)" stroke-width="1.5"></path><path d="M857.88 655.74L676.71 504.33" stroke="rgba(208, 172, 211, 1)" stroke-width="1.5"></path><path d="M973.74 -38.5L973.74 -38.5" stroke="rgba(208, 172, 211, 1)" stroke-width="1.5"></path><path d="M973.74 -38.5L994.78 101.83" stroke="rgba(208, 172, 211, 1)" stroke-width="1.5"></path><path d="M973.74 -38.5L1130.34 51.2" stroke="rgba(208, 172, 211, 1)" stroke-width="1.5"></path><path d="M994.78 101.83L994.78 101.83" stroke="rgba(208, 172, 211, 1)" stroke-width="1.5"></path><path d="M994.78 101.83L1106.74 192.52" stroke="rgba(208, 172, 211, 1)" stroke-width="1.5"></path><path d="M994.78 101.83L1130.34 51.2" stroke="rgba(208, 172, 211, 1)" stroke-width="1.5"></path><path d="M994.78 101.83L977.6 247.96" stroke="rgba(208, 172, 211, 1)" stroke-width="1.5"></path><path d="M994.78 101.83L849.2 192.4" stroke="rgba(208, 172, 211, 1)" stroke-width="1.5"></path><path d="M977.6 247.96L977.6 247.96" stroke="rgba(208, 172, 211, 1)" stroke-width="1.5"></path><path d="M977.6 247.96L1106.74 192.52" stroke="rgba(208, 172, 211, 1)" stroke-width="1.5"></path><path d="M964.7 404.17L964.7 404.17" stroke="rgba(208, 172, 211, 1)" stroke-width="1.5"></path><path d="M964.7 404.17L1012.13 546.8" stroke="rgba(208, 172, 211, 1)" stroke-width="1.5"></path><path d="M964.7 404.17L977.6 247.96" stroke="rgba(208, 172, 211, 1)" stroke-width="1.5"></path><path d="M1012.13 546.8L1012.13 546.8" stroke="rgba(208, 172, 211, 1)" stroke-width="1.5"></path><path d="M1012.13 546.8L1109.52 512.69" stroke="rgba(208, 172, 211, 1)" stroke-width="1.5"></path><path d="M1161.07 -42.09L1161.07 -42.09" stroke="rgba(208, 172, 211, 1)" stroke-width="1.5"></path><path d="M1161.07 -42.09L1254.19 -63.85" stroke="rgba(208, 172, 211, 1)" stroke-width="1.5"></path><path d="M1161.07 -42.09L1130.34 51.2" stroke="rgba(208, 172, 211, 1)" stroke-width="1.5"></path><path d="M1161.07 -42.09L1253.98 85.99" stroke="rgba(208, 172, 211, 1)" stroke-width="1.5"></path><path d="M1130.34 51.2L1130.34 51.2" stroke="rgba(208, 172, 211, 1)" stroke-width="1.5"></path><path d="M1130.34 51.2L1253.98 85.99" stroke="rgba(208, 172, 211, 1)" stroke-width="1.5"></path><path d="M1130.34 51.2L1106.74 192.52" stroke="rgba(208, 172, 211, 1)" stroke-width="1.5"></path><path d="M1106.74 192.52L1106.74 192.52" stroke="rgba(208, 172, 211, 1)" stroke-width="1.5"></path><path d="M1136.85 383.68L1136.85 383.68" stroke="rgba(208, 172, 211, 1)" stroke-width="1.5"></path><path d="M1136.85 383.68L1265.3 398.49" stroke="rgba(208, 172, 211, 1)" stroke-width="1.5"></path><path d="M1136.85 383.68L1109.52 512.69" stroke="rgba(208, 172, 211, 1)" stroke-width="1.5"></path><path d="M1136.85 383.68L964.7 404.17" stroke="rgba(208, 172, 211, 1)" stroke-width="1.5"></path><path d="M1109.52 512.69L1109.52 512.69" stroke="rgba(208, 172, 211, 1)" stroke-width="1.5"></path><path d="M1087.75 711.66L1087.75 711.66" stroke="rgba(208, 172, 211, 1)" stroke-width="1.5"></path><path d="M1087.75 711.66L1012.13 546.8" stroke="rgba(208, 172, 211, 1)" stroke-width="1.5"></path><path d="M1087.75 711.66L1270.13 685.19" stroke="rgba(208, 172, 211, 1)" stroke-width="1.5"></path><path d="M1254.19 -63.85L1254.19 -63.85" stroke="rgba(208, 172, 211, 1)" stroke-width="1.5"></path><path d="M1254.19 -63.85L1253.98 85.99" stroke="rgba(208, 172, 211, 1)" stroke-width="1.5"></path><path d="M1253.98 85.99L1253.98 85.99" stroke="rgba(208, 172, 211, 1)" stroke-width="1.5"></path><path d="M1296.08 231.54L1296.08 231.54" stroke="rgba(208, 172, 211, 1)" stroke-width="1.5"></path><path d="M1296.08 231.54L1396.02 227.05" stroke="rgba(208, 172, 211, 1)" stroke-width="1.5"></path><path d="M1296.08 231.54L1253.98 85.99" stroke="rgba(208, 172, 211, 1)" stroke-width="1.5"></path><path d="M1265.3 398.49L1265.3 398.49" stroke="rgba(208, 172, 211, 1)" stroke-width="1.5"></path><path d="M1265.3 398.49L1311.49 502.5" stroke="rgba(208, 172, 211, 1)" stroke-width="1.5"></path><path d="M1265.3 398.49L1410.06 380.59" stroke="rgba(208, 172, 211, 1)" stroke-width="1.5"></path><path d="M1265.3 398.49L1296.08 231.54" stroke="rgba(208, 172, 211, 1)" stroke-width="1.5"></path><path d="M1311.49 502.5L1311.49 502.5" stroke="rgba(208, 172, 211, 1)" stroke-width="1.5"></path><path d="M1311.49 502.5L1414.7 534.35" stroke="rgba(208, 172, 211, 1)" stroke-width="1.5"></path><path d="M1311.49 502.5L1410.06 380.59" stroke="rgba(208, 172, 211, 1)" stroke-width="1.5"></path><path d="M1270.13 685.19L1270.13 685.19" stroke="rgba(208, 172, 211, 1)" stroke-width="1.5"></path><path d="M1270.13 685.19L1406.76 707.19" stroke="rgba(208, 172, 211, 1)" stroke-width="1.5"></path><path d="M1270.13 685.19L1311.49 502.5" stroke="rgba(208, 172, 211, 1)" stroke-width="1.5"></path><path d="M1270.13 685.19L1414.7 534.35" stroke="rgba(208, 172, 211, 1)" stroke-width="1.5"></path><path d="M1270.13 685.19L1109.52 512.69" stroke="rgba(208, 172, 211, 1)" stroke-width="1.5"></path><path d="M1409.92 -97.1L1409.92 -97.1" stroke="rgba(208, 172, 211, 1)" stroke-width="1.5"></path><path d="M1409.92 -97.1L1254.19 -63.85" stroke="rgba(208, 172, 211, 1)" stroke-width="1.5"></path><path d="M1409.92 -97.1L1575.5 -90.96" stroke="rgba(208, 172, 211, 1)" stroke-width="1.5"></path><path d="M1409.92 -97.1L1408.37 91.04" stroke="rgba(208, 172, 211, 1)" stroke-width="1.5"></path><path d="M1408.37 91.04L1408.37 91.04" stroke="rgba(208, 172, 211, 1)" stroke-width="1.5"></path><path d="M1408.37 91.04L1396.02 227.05" stroke="rgba(208, 172, 211, 1)" stroke-width="1.5"></path><path d="M1408.37 91.04L1548.26 45.67" stroke="rgba(208, 172, 211, 1)" stroke-width="1.5"></path><path d="M1408.37 91.04L1253.98 85.99" stroke="rgba(208, 172, 211, 1)" stroke-width="1.5"></path><path d="M1408.37 91.04L1296.08 231.54" stroke="rgba(208, 172, 211, 1)" stroke-width="1.5"></path><path d="M1408.37 91.04L1254.19 -63.85" stroke="rgba(208, 172, 211, 1)" stroke-width="1.5"></path><path d="M1396.02 227.05L1396.02 227.05" stroke="rgba(208, 172, 211, 1)" stroke-width="1.5"></path><path d="M1396.02 227.05L1410.06 380.59" stroke="rgba(208, 172, 211, 1)" stroke-width="1.5"></path><path d="M1396.02 227.05L1253.98 85.99" stroke="rgba(208, 172, 211, 1)" stroke-width="1.5"></path><path d="M1410.06 380.59L1410.06 380.59" stroke="rgba(208, 172, 211, 1)" stroke-width="1.5"></path><path d="M1410.06 380.59L1414.7 534.35" stroke="rgba(208, 172, 211, 1)" stroke-width="1.5"></path><path d="M1414.7 534.35L1414.7 534.35" stroke="rgba(208, 172, 211, 1)" stroke-width="1.5"></path><path d="M1414.7 534.35L1571.67 488.41" stroke="rgba(208, 172, 211, 1)" stroke-width="1.5"></path><path d="M1406.76 707.19L1406.76 707.19" stroke="rgba(208, 172, 211, 1)" stroke-width="1.5"></path><path d="M1406.76 707.19L1414.7 534.35" stroke="rgba(208, 172, 211, 1)" stroke-width="1.5"></path><path d="M1406.76 707.19L1594.5 645.91" stroke="rgba(208, 172, 211, 1)" stroke-width="1.5"></path><path d="M1406.76 707.19L1311.49 502.5" stroke="rgba(208, 172, 211, 1)" stroke-width="1.5"></path><path d="M1406.76 707.19L1571.67 488.41" stroke="rgba(208, 172, 211, 1)" stroke-width="1.5"></path><path d="M1406.76 707.19L1087.75 711.66" stroke="rgba(208, 172, 211, 1)" stroke-width="1.5"></path><path d="M1575.5 -90.96L1575.5 -90.96" stroke="rgba(208, 172, 211, 1)" stroke-width="1.5"></path><path d="M1575.5 -90.96L1548.26 45.67" stroke="rgba(208, 172, 211, 1)" stroke-width="1.5"></path><path d="M1548.26 45.67L1548.26 45.67" stroke="rgba(208, 172, 211, 1)" stroke-width="1.5"></path><path d="M1548.26 45.67L1599.41 237.06" stroke="rgba(208, 172, 211, 1)" stroke-width="1.5"></path><path d="M1548.26 45.67L1409.92 -97.1" stroke="rgba(208, 172, 211, 1)" stroke-width="1.5"></path><path d="M1548.26 45.67L1396.02 227.05" stroke="rgba(208, 172, 211, 1)" stroke-width="1.5"></path><path d="M1599.41 237.06L1599.41 237.06" stroke="rgba(208, 172, 211, 1)" stroke-width="1.5"></path><path d="M1599.41 237.06L1612.26 340.11" stroke="rgba(208, 172, 211, 1)" stroke-width="1.5"></path><path d="M1612.26 340.11L1612.26 340.11" stroke="rgba(208, 172, 211, 1)" stroke-width="1.5"></path><path d="M1612.26 340.11L1571.67 488.41" stroke="rgba(208, 172, 211, 1)" stroke-width="1.5"></path><path d="M1612.26 340.11L1410.06 380.59" stroke="rgba(208, 172, 211, 1)" stroke-width="1.5"></path><path d="M1612.26 340.11L1396.02 227.05" stroke="rgba(208, 172, 211, 1)" stroke-width="1.5"></path><path d="M1612.26 340.11L1414.7 534.35" stroke="rgba(208, 172, 211, 1)" stroke-width="1.5"></path><path d="M1612.26 340.11L1548.26 45.67" stroke="rgba(208, 172, 211, 1)" stroke-width="1.5"></path><path d="M1571.67 488.41L1571.67 488.41" stroke="rgba(208, 172, 211, 1)" stroke-width="1.5"></path><path d="M1571.67 488.41L1594.5 645.91" stroke="rgba(208, 172, 211, 1)" stroke-width="1.5"></path><path d="M1571.67 488.41L1410.06 380.59" stroke="rgba(208, 172, 211, 1)" stroke-width="1.5"></path><path d="M1571.67 488.41L1599.41 237.06" stroke="rgba(208, 172, 211, 1)" stroke-width="1.5"></path><path d="M1571.67 488.41L1311.49 502.5" stroke="rgba(208, 172, 211, 1)" stroke-width="1.5"></path><path d="M1594.5 645.91L1594.5 645.91" stroke="rgba(208, 172, 211, 1)" stroke-width="1.5"></path><circle r="5" cx="-65.73" cy="526.5" fill="rgba(208, 172, 211, 1)"></circle><circle r="5" cx="38.86" cy="405.96" fill="rgba(208, 172, 211, 1)"></circle><circle r="5" cx="99.97" cy="538.56" fill="rgba(208, 172, 211, 1)"></circle><circle r="5" cx="67.09" cy="705.41" fill="rgba(208, 172, 211, 1)"></circle><circle r="5" cx="260.73" cy="529.8" fill="rgba(208, 172, 211, 1)"></circle><circle r="5" cx="389.08" cy="523.6" fill="rgba(208, 172, 211, 1)"></circle><circle r="5" cx="395.44" cy="645.8" fill="rgba(208, 172, 211, 1)"></circle><circle r="5" cx="557.95" cy="389.36" fill="rgba(208, 172, 211, 1)"></circle><circle r="5" cx="490.52" cy="495.29" fill="rgba(208, 172, 211, 1)"></circle><circle r="5" cx="507.97" cy="647.69" fill="rgba(208, 172, 211, 1)"></circle><circle r="5" cx="676.71" cy="504.33" fill="rgba(208, 172, 211, 1)"></circle><circle r="5" cx="645.09" cy="711.22" fill="rgba(208, 172, 211, 1)"></circle><circle r="5" cx="851.26" cy="77.67" fill="rgba(208, 172, 211, 1)"></circle><circle r="5" cx="849.2" cy="192.4" fill="rgba(208, 172, 211, 1)"></circle><circle r="5" cx="797.94" cy="384.35" fill="rgba(208, 172, 211, 1)"></circle><circle r="5" cx="819.07" cy="510.5" fill="rgba(208, 172, 211, 1)"></circle><circle r="5" cx="857.88" cy="655.74" fill="rgba(208, 172, 211, 1)"></circle><circle r="5" cx="973.74" cy="-38.5" fill="rgba(208, 172, 211, 1)"></circle><circle r="5" cx="994.78" cy="101.83" fill="rgba(208, 172, 211, 1)"></circle><circle r="5" cx="977.6" cy="247.96" fill="rgba(208, 172, 211, 1)"></circle><circle r="5" cx="964.7" cy="404.17" fill="rgba(208, 172, 211, 1)"></circle><circle r="5" cx="1012.13" cy="546.8" fill="rgba(208, 172, 211, 1)"></circle><circle r="5" cx="1161.07" cy="-42.09" fill="rgba(208, 172, 211, 1)"></circle><circle r="5" cx="1130.34" cy="51.2" fill="rgba(208, 172, 211, 1)"></circle><circle r="5" cx="1106.74" cy="192.52" fill="rgba(208, 172, 211, 1)"></circle><circle r="5" cx="1136.85" cy="383.68" fill="rgba(208, 172, 211, 1)"></circle><circle r="5" cx="1109.52" cy="512.69" fill="rgba(208, 172, 211, 1)"></circle><circle r="5" cx="1087.75" cy="711.66" fill="rgba(208, 172, 211, 1)"></circle><circle r="5" cx="1254.19" cy="-63.85" fill="rgba(208, 172, 211, 1)"></circle><circle r="5" cx="1253.98" cy="85.99" fill="rgba(208, 172, 211, 1)"></circle><circle r="5" cx="1296.08" cy="231.54" fill="rgba(208, 172, 211, 1)"></circle><circle r="5" cx="1265.3" cy="398.49" fill="rgba(208, 172, 211, 1)"></circle><circle r="5" cx="1311.49" cy="502.5" fill="rgba(208, 172, 211, 1)"></circle><circle r="5" cx="1270.13" cy="685.19" fill="rgba(208, 172, 211, 1)"></circle><circle r="5" cx="1409.92" cy="-97.1" fill="rgba(208, 172, 211, 1)"></circle><circle r="5" cx="1408.37" cy="91.04" fill="rgba(208, 172, 211, 1)"></circle><circle r="5" cx="1396.02" cy="227.05" fill="rgba(208, 172, 211, 1)"></circle><circle r="5" cx="1410.06" cy="380.59" fill="rgba(208, 172, 211, 1)"></circle><circle r="5" cx="1414.7" cy="534.35" fill="rgba(208, 172, 211, 1)"></circle><circle r="5" cx="1406.76" cy="707.19" fill="rgba(208, 172, 211, 1)"></circle><circle r="5" cx="1575.5" cy="-90.96" fill="rgba(208, 172, 211, 1)"></circle><circle r="5" cx="1548.26" cy="45.67" fill="rgba(208, 172, 211, 1)"></circle><circle r="5" cx="1599.41" cy="237.06" fill="rgba(208, 172, 211, 1)"></circle><circle r="5" cx="1612.26" cy="340.11" fill="rgba(208, 172, 211, 1)"></circle><circle r="5" cx="1571.67" cy="488.41" fill="rgba(208, 172, 211, 1)"></circle><circle r="5" cx="1594.5" cy="645.91" fill="rgba(208, 172, 211, 1)"></circle><path d="M857.77 509.4L857.77 509.4" stroke="hsl(168, 40.9%, 89.5%)" stroke-width="1.5"></path><path d="M857.77 509.4L1004.94 529.49" stroke="hsl(168, 40.9%, 89.5%)" stroke-width="1.5"></path><path d="M857.77 509.4L841.33 359.77" stroke="hsl(168, 40.9%, 89.5%)" stroke-width="1.5"></path><path d="M857.77 509.4L946.26 641.47" stroke="hsl(168, 40.9%, 89.5%)" stroke-width="1.5"></path><path d="M836.22 708.36L836.22 708.36" stroke="hsl(168, 40.9%, 89.5%)" stroke-width="1.5"></path><path d="M836.22 708.36L946.26 641.47" stroke="hsl(168, 40.9%, 89.5%)" stroke-width="1.5"></path><path d="M836.22 708.36L709.59 663.8" stroke="hsl(168, 40.9%, 89.5%)" stroke-width="1.5"></path><path d="M1109.1 193.24L1109.1 193.24" stroke="hsl(168, 40.9%, 89.5%)" stroke-width="1.5"></path><path d="M1109.1 193.24L1011.37 239.32" stroke="hsl(168, 40.9%, 89.5%)" stroke-width="1.5"></path><path d="M1109.1 193.24L1138.65 77.16" stroke="hsl(168, 40.9%, 89.5%)" stroke-width="1.5"></path><path d="M1109.1 193.24L1116.86 347.06" stroke="hsl(168, 40.9%, 89.5%)" stroke-width="1.5"></path><path d="M1116.86 347.06L1116.86 347.06" stroke="hsl(168, 40.9%, 89.5%)" stroke-width="1.5"></path><path d="M1116.86 347.06L1012.35 375.07" stroke="hsl(168, 40.9%, 89.5%)" stroke-width="1.5"></path><path d="M1116.86 347.06L1011.37 239.32" stroke="hsl(168, 40.9%, 89.5%)" stroke-width="1.5"></path><path d="M1312.14 521.85L1312.14 521.85" stroke="hsl(168, 40.9%, 89.5%)" stroke-width="1.5"></path><path d="M1312.14 521.85L1459.94 552.07" stroke="hsl(168, 40.9%, 89.5%)" stroke-width="1.5"></path><path d="M1312.14 521.85L1410.65 385.65" stroke="hsl(168, 40.9%, 89.5%)" stroke-width="1.5"></path><path d="M1312.14 521.85L1306.86 350.79" stroke="hsl(168, 40.9%, 89.5%)" stroke-width="1.5"></path><path d="M1312.14 521.85L1299.58 698.09" stroke="hsl(168, 40.9%, 89.5%)" stroke-width="1.5"></path><path d="M1312.14 521.85L1099.16 509.91" stroke="hsl(168, 40.9%, 89.5%)" stroke-width="1.5"></path><path d="M1583.97 338.57L1583.97 338.57" stroke="hsl(168, 40.9%, 89.5%)" stroke-width="1.5"></path><path d="M1583.97 338.57L1574.21 248.49" stroke="hsl(168, 40.9%, 89.5%)" stroke-width="1.5"></path><path d="M1583.97 338.57L1592.41 505.73" stroke="hsl(168, 40.9%, 89.5%)" stroke-width="1.5"></path><path d="M-39.73 691.94L-39.73 691.94" stroke="hsl(168, 40.9%, 89.5%)" stroke-width="1.5"></path><path d="M-39.73 691.94L47.45 695.25" stroke="hsl(168, 40.9%, 89.5%)" stroke-width="1.5"></path><path d="M-39.73 691.94L72.59 561.2" stroke="hsl(168, 40.9%, 89.5%)" stroke-width="1.5"></path><path d="M72.59 561.2L72.59 561.2" stroke="hsl(168, 40.9%, 89.5%)" stroke-width="1.5"></path><path d="M72.59 561.2L47.45 695.25" stroke="hsl(168, 40.9%, 89.5%)" stroke-width="1.5"></path><path d="M47.45 695.25L47.45 695.25" stroke="hsl(168, 40.9%, 89.5%)" stroke-width="1.5"></path><path d="M47.45 695.25L198.83 691.78" stroke="hsl(168, 40.9%, 89.5%)" stroke-width="1.5"></path><path d="M198.83 691.78L198.83 691.78" stroke="hsl(168, 40.9%, 89.5%)" stroke-width="1.5"></path><path d="M198.83 691.78L72.59 561.2" stroke="hsl(168, 40.9%, 89.5%)" stroke-width="1.5"></path><path d="M198.83 691.78L383.27 696.6" stroke="hsl(168, 40.9%, 89.5%)" stroke-width="1.5"></path><path d="M392.17 533.4L392.17 533.4" stroke="hsl(168, 40.9%, 89.5%)" stroke-width="1.5"></path><path d="M392.17 533.4L503.23 550.88" stroke="hsl(168, 40.9%, 89.5%)" stroke-width="1.5"></path><path d="M392.17 533.4L383.27 696.6" stroke="hsl(168, 40.9%, 89.5%)" stroke-width="1.5"></path><path d="M392.17 533.4L521.83 661.81" stroke="hsl(168, 40.9%, 89.5%)" stroke-width="1.5"></path><path d="M392.17 533.4L638.36 500.71" stroke="hsl(168, 40.9%, 89.5%)" stroke-width="1.5"></path><path d="M383.27 696.6L383.27 696.6" stroke="hsl(168, 40.9%, 89.5%)" stroke-width="1.5"></path><path d="M383.27 696.6L521.83 661.81" stroke="hsl(168, 40.9%, 89.5%)" stroke-width="1.5"></path><path d="M383.27 696.6L503.23 550.88" stroke="hsl(168, 40.9%, 89.5%)" stroke-width="1.5"></path><path d="M383.27 696.6L638.36 500.71" stroke="hsl(168, 40.9%, 89.5%)" stroke-width="1.5"></path><path d="M383.27 696.6L709.59 663.8" stroke="hsl(168, 40.9%, 89.5%)" stroke-width="1.5"></path><path d="M503.23 550.88L503.23 550.88" stroke="hsl(168, 40.9%, 89.5%)" stroke-width="1.5"></path><path d="M503.23 550.88L521.83 661.81" stroke="hsl(168, 40.9%, 89.5%)" stroke-width="1.5"></path><path d="M521.83 661.81L521.83 661.81" stroke="hsl(168, 40.9%, 89.5%)" stroke-width="1.5"></path><path d="M521.83 661.81L709.59 663.8" stroke="hsl(168, 40.9%, 89.5%)" stroke-width="1.5"></path><path d="M521.83 661.81L638.36 500.71" stroke="hsl(168, 40.9%, 89.5%)" stroke-width="1.5"></path><path d="M521.83 661.81L662.01 380.62" stroke="hsl(168, 40.9%, 89.5%)" stroke-width="1.5"></path><path d="M662.01 380.62L662.01 380.62" stroke="hsl(168, 40.9%, 89.5%)" stroke-width="1.5"></path><path d="M662.01 380.62L638.36 500.71" stroke="hsl(168, 40.9%, 89.5%)" stroke-width="1.5"></path><path d="M662.01 380.62L841.33 359.77" stroke="hsl(168, 40.9%, 89.5%)" stroke-width="1.5"></path><path d="M662.01 380.62L503.23 550.88" stroke="hsl(168, 40.9%, 89.5%)" stroke-width="1.5"></path><path d="M638.36 500.71L638.36 500.71" stroke="hsl(168, 40.9%, 89.5%)" stroke-width="1.5"></path><path d="M638.36 500.71L503.23 550.88" stroke="hsl(168, 40.9%, 89.5%)" stroke-width="1.5"></path><path d="M638.36 500.71L709.59 663.8" stroke="hsl(168, 40.9%, 89.5%)" stroke-width="1.5"></path><path d="M709.59 663.8L709.59 663.8" stroke="hsl(168, 40.9%, 89.5%)" stroke-width="1.5"></path><path d="M709.59 663.8L857.77 509.4" stroke="hsl(168, 40.9%, 89.5%)" stroke-width="1.5"></path><path d="M709.59 663.8L503.23 550.88" stroke="hsl(168, 40.9%, 89.5%)" stroke-width="1.5"></path><path d="M841.33 359.77L841.33 359.77" stroke="hsl(168, 40.9%, 89.5%)" stroke-width="1.5"></path><path d="M841.33 359.77L1012.35 375.07" stroke="hsl(168, 40.9%, 89.5%)" stroke-width="1.5"></path><path d="M1011.37 239.32L1011.37 239.32" stroke="hsl(168, 40.9%, 89.5%)" stroke-width="1.5"></path><path d="M1011.37 239.32L1012.35 375.07" stroke="hsl(168, 40.9%, 89.5%)" stroke-width="1.5"></path><path d="M1011.37 239.32L1138.65 77.16" stroke="hsl(168, 40.9%, 89.5%)" stroke-width="1.5"></path><path d="M1012.35 375.07L1012.35 375.07" stroke="hsl(168, 40.9%, 89.5%)" stroke-width="1.5"></path><path d="M1012.35 375.07L1004.94 529.49" stroke="hsl(168, 40.9%, 89.5%)" stroke-width="1.5"></path><path d="M1012.35 375.07L1099.16 509.91" stroke="hsl(168, 40.9%, 89.5%)" stroke-width="1.5"></path><path d="M1004.94 529.49L1004.94 529.49" stroke="hsl(168, 40.9%, 89.5%)" stroke-width="1.5"></path><path d="M1004.94 529.49L1099.16 509.91" stroke="hsl(168, 40.9%, 89.5%)" stroke-width="1.5"></path><path d="M1004.94 529.49L946.26 641.47" stroke="hsl(168, 40.9%, 89.5%)" stroke-width="1.5"></path><path d="M946.26 641.47L946.26 641.47" stroke="hsl(168, 40.9%, 89.5%)" stroke-width="1.5"></path><path d="M1138.65 77.16L1138.65 77.16" stroke="hsl(168, 40.9%, 89.5%)" stroke-width="1.5"></path><path d="M1138.65 77.16L1294.62 41.68" stroke="hsl(168, 40.9%, 89.5%)" stroke-width="1.5"></path><path d="M1138.65 77.16L1279.32 201.35" stroke="hsl(168, 40.9%, 89.5%)" stroke-width="1.5"></path><path d="M1099.16 509.91L1099.16 509.91" stroke="hsl(168, 40.9%, 89.5%)" stroke-width="1.5"></path><path d="M1099.16 509.91L1116.86 347.06" stroke="hsl(168, 40.9%, 89.5%)" stroke-width="1.5"></path><path d="M1099.16 509.91L1100.77 683.46" stroke="hsl(168, 40.9%, 89.5%)" stroke-width="1.5"></path><path d="M1100.77 683.46L1100.77 683.46" stroke="hsl(168, 40.9%, 89.5%)" stroke-width="1.5"></path><path d="M1100.77 683.46L946.26 641.47" stroke="hsl(168, 40.9%, 89.5%)" stroke-width="1.5"></path><path d="M1100.77 683.46L1004.94 529.49" stroke="hsl(168, 40.9%, 89.5%)" stroke-width="1.5"></path><path d="M1100.77 683.46L1299.58 698.09" stroke="hsl(168, 40.9%, 89.5%)" stroke-width="1.5"></path><path d="M1100.77 683.46L836.22 708.36" stroke="hsl(168, 40.9%, 89.5%)" stroke-width="1.5"></path><path d="M1266.91 -67.31L1266.91 -67.31" stroke="hsl(168, 40.9%, 89.5%)" stroke-width="1.5"></path><path d="M1266.91 -67.31L1294.62 41.68" stroke="hsl(168, 40.9%, 89.5%)" stroke-width="1.5"></path><path d="M1266.91 -67.31L1431.57 -96.55" stroke="hsl(168, 40.9%, 89.5%)" stroke-width="1.5"></path><path d="M1266.91 -67.31L1138.65 77.16" stroke="hsl(168, 40.9%, 89.5%)" stroke-width="1.5"></path><path d="M1266.91 -67.31L1435.64 96.5" stroke="hsl(168, 40.9%, 89.5%)" stroke-width="1.5"></path><path d="M1266.91 -67.31L1279.32 201.35" stroke="hsl(168, 40.9%, 89.5%)" stroke-width="1.5"></path><path d="M1266.91 -67.31L1109.1 193.24" stroke="hsl(168, 40.9%, 89.5%)" stroke-width="1.5"></path><path d="M1294.62 41.68L1294.62 41.68" stroke="hsl(168, 40.9%, 89.5%)" stroke-width="1.5"></path><path d="M1294.62 41.68L1435.64 96.5" stroke="hsl(168, 40.9%, 89.5%)" stroke-width="1.5"></path><path d="M1279.32 201.35L1279.32 201.35" stroke="hsl(168, 40.9%, 89.5%)" stroke-width="1.5"></path><path d="M1279.32 201.35L1426.12 217.87" stroke="hsl(168, 40.9%, 89.5%)" stroke-width="1.5"></path><path d="M1279.32 201.35L1306.86 350.79" stroke="hsl(168, 40.9%, 89.5%)" stroke-width="1.5"></path><path d="M1279.32 201.35L1294.62 41.68" stroke="hsl(168, 40.9%, 89.5%)" stroke-width="1.5"></path><path d="M1279.32 201.35L1109.1 193.24" stroke="hsl(168, 40.9%, 89.5%)" stroke-width="1.5"></path><path d="M1306.86 350.79L1306.86 350.79" stroke="hsl(168, 40.9%, 89.5%)" stroke-width="1.5"></path><path d="M1306.86 350.79L1410.65 385.65" stroke="hsl(168, 40.9%, 89.5%)" stroke-width="1.5"></path><path d="M1299.58 698.09L1299.58 698.09" stroke="hsl(168, 40.9%, 89.5%)" stroke-width="1.5"></path><path d="M1299.58 698.09L1459.94 552.07" stroke="hsl(168, 40.9%, 89.5%)" stroke-width="1.5"></path><path d="M1299.58 698.09L1553.28 648.11" stroke="hsl(168, 40.9%, 89.5%)" stroke-width="1.5"></path><path d="M1431.57 -96.55L1431.57 -96.55" stroke="hsl(168, 40.9%, 89.5%)" stroke-width="1.5"></path><path d="M1431.57 -96.55L1572.67 -56.17" stroke="hsl(168, 40.9%, 89.5%)" stroke-width="1.5"></path><path d="M1431.57 -96.55L1435.64 96.5" stroke="hsl(168, 40.9%, 89.5%)" stroke-width="1.5"></path><path d="M1431.57 -96.55L1294.62 41.68" stroke="hsl(168, 40.9%, 89.5%)" stroke-width="1.5"></path><path d="M1435.64 96.5L1435.64 96.5" stroke="hsl(168, 40.9%, 89.5%)" stroke-width="1.5"></path><path d="M1435.64 96.5L1426.12 217.87" stroke="hsl(168, 40.9%, 89.5%)" stroke-width="1.5"></path><path d="M1435.64 96.5L1565.94 80.82" stroke="hsl(168, 40.9%, 89.5%)" stroke-width="1.5"></path><path d="M1435.64 96.5L1279.32 201.35" stroke="hsl(168, 40.9%, 89.5%)" stroke-width="1.5"></path><path d="M1426.12 217.87L1426.12 217.87" stroke="hsl(168, 40.9%, 89.5%)" stroke-width="1.5"></path><path d="M1426.12 217.87L1574.21 248.49" stroke="hsl(168, 40.9%, 89.5%)" stroke-width="1.5"></path><path d="M1410.65 385.65L1410.65 385.65" stroke="hsl(168, 40.9%, 89.5%)" stroke-width="1.5"></path><path d="M1410.65 385.65L1426.12 217.87" stroke="hsl(168, 40.9%, 89.5%)" stroke-width="1.5"></path><path d="M1410.65 385.65L1459.94 552.07" stroke="hsl(168, 40.9%, 89.5%)" stroke-width="1.5"></path><path d="M1459.94 552.07L1459.94 552.07" stroke="hsl(168, 40.9%, 89.5%)" stroke-width="1.5"></path><path d="M1459.94 552.07L1553.28 648.11" stroke="hsl(168, 40.9%, 89.5%)" stroke-width="1.5"></path><path d="M1459.94 552.07L1592.41 505.73" stroke="hsl(168, 40.9%, 89.5%)" stroke-width="1.5"></path><path d="M1572.67 -56.17L1572.67 -56.17" stroke="hsl(168, 40.9%, 89.5%)" stroke-width="1.5"></path><path d="M1572.67 -56.17L1565.94 80.82" stroke="hsl(168, 40.9%, 89.5%)" stroke-width="1.5"></path><path d="M1572.67 -56.17L1435.64 96.5" stroke="hsl(168, 40.9%, 89.5%)" stroke-width="1.5"></path><path d="M1565.94 80.82L1565.94 80.82" stroke="hsl(168, 40.9%, 89.5%)" stroke-width="1.5"></path><path d="M1565.94 80.82L1574.21 248.49" stroke="hsl(168, 40.9%, 89.5%)" stroke-width="1.5"></path><path d="M1565.94 80.82L1426.12 217.87" stroke="hsl(168, 40.9%, 89.5%)" stroke-width="1.5"></path><path d="M1574.21 248.49L1574.21 248.49" stroke="hsl(168, 40.9%, 89.5%)" stroke-width="1.5"></path><path d="M1592.41 505.73L1592.41 505.73" stroke="hsl(168, 40.9%, 89.5%)" stroke-width="1.5"></path><path d="M1592.41 505.73L1553.28 648.11" stroke="hsl(168, 40.9%, 89.5%)" stroke-width="1.5"></path><path d="M1592.41 505.73L1410.65 385.65" stroke="hsl(168, 40.9%, 89.5%)" stroke-width="1.5"></path><path d="M1592.41 505.73L1574.21 248.49" stroke="hsl(168, 40.9%, 89.5%)" stroke-width="1.5"></path><path d="M1553.28 648.11L1553.28 648.11" stroke="hsl(168, 40.9%, 89.5%)" stroke-width="1.5"></path><circle r="25" cx="857.77" cy="509.4" fill="url(&quot;#SvgjsRadialGradient4836&quot;)"></circle><circle r="25" cx="836.22" cy="708.36" fill="url(&quot;#SvgjsRadialGradient4836&quot;)"></circle><circle r="25" cx="1109.1" cy="193.24" fill="url(&quot;#SvgjsRadialGradient4836&quot;)"></circle><circle r="25" cx="1116.86" cy="347.06" fill="url(&quot;#SvgjsRadialGradient4836&quot;)"></circle><circle r="25" cx="1312.14" cy="521.85" fill="url(&quot;#SvgjsRadialGradient4836&quot;)"></circle><circle r="25" cx="1583.97" cy="338.57" fill="url(&quot;#SvgjsRadialGradient4836&quot;)"></circle><circle r="5" cx="-39.73" cy="691.94" fill="#c7e8e1"></circle><circle r="5" cx="72.59" cy="561.2" fill="#c7e8e1"></circle><circle r="5" cx="47.45" cy="695.25" fill="#c7e8e1"></circle><circle r="5" cx="198.83" cy="691.78" fill="#c7e8e1"></circle><circle r="5" cx="392.17" cy="533.4" fill="#c7e8e1"></circle><circle r="5" cx="383.27" cy="696.6" fill="#c7e8e1"></circle><circle r="5" cx="503.23" cy="550.88" fill="#c7e8e1"></circle><circle r="5" cx="521.83" cy="661.81" fill="#c7e8e1"></circle><circle r="5" cx="662.01" cy="380.62" fill="#c7e8e1"></circle><circle r="5" cx="638.36" cy="500.71" fill="#c7e8e1"></circle><circle r="5" cx="709.59" cy="663.8" fill="#c7e8e1"></circle><circle r="5" cx="841.33" cy="359.77" fill="#c7e8e1"></circle><circle r="5" cx="1011.37" cy="239.32" fill="#c7e8e1"></circle><circle r="5" cx="1012.35" cy="375.07" fill="#c7e8e1"></circle><circle r="5" cx="1004.94" cy="529.49" fill="#c7e8e1"></circle><circle r="5" cx="946.26" cy="641.47" fill="#c7e8e1"></circle><circle r="5" cx="1138.65" cy="77.16" fill="#c7e8e1"></circle><circle r="5" cx="1099.16" cy="509.91" fill="#c7e8e1"></circle><circle r="5" cx="1100.77" cy="683.46" fill="#c7e8e1"></circle><circle r="5" cx="1266.91" cy="-67.31" fill="#c7e8e1"></circle><circle r="5" cx="1294.62" cy="41.68" fill="#c7e8e1"></circle><circle r="5" cx="1279.32" cy="201.35" fill="#c7e8e1"></circle><circle r="5" cx="1306.86" cy="350.79" fill="#c7e8e1"></circle><circle r="5" cx="1299.58" cy="698.09" fill="#c7e8e1"></circle><circle r="5" cx="1431.57" cy="-96.55" fill="#c7e8e1"></circle><circle r="5" cx="1435.64" cy="96.5" fill="#c7e8e1"></circle><circle r="5" cx="1426.12" cy="217.87" fill="#c7e8e1"></circle><circle r="5" cx="1410.65" cy="385.65" fill="#c7e8e1"></circle><circle r="5" cx="1459.94" cy="552.07" fill="#c7e8e1"></circle><circle r="5" cx="1572.67" cy="-56.17" fill="#c7e8e1"></circle><circle r="5" cx="1565.94" cy="80.82" fill="#c7e8e1"></circle><circle r="5" cx="1574.21" cy="248.49" fill="#c7e8e1"></circle><circle r="5" cx="1592.41" cy="505.73" fill="#c7e8e1"></circle><circle r="5" cx="1553.28" cy="648.11" fill="#c7e8e1"></circle></g><defs><mask id="SvgjsMask4834"><rect width="1440" height="560" fill="#ffffff"></rect></mask><linearGradient x1="15.28%" y1="-39.29%" x2="84.72%" y2="139.29%" gradientUnits="userSpaceOnUse" id="SvgjsLinearGradient4835"><stop stop-color="rgba(205, 221, 234, 1)" offset="0"></stop><stop stop-color="rgba(14, 42, 71, 1)" offset="1"></stop></linearGradient><radialGradient id="SvgjsRadialGradient4836"><stop stop-color="#ffffff" offset="0.1"></stop><stop stop-color="rgba(143, 208, 195, 1)" offset="0.2"></stop><stop stop-color="rgba(143, 208, 195, 0)" offset="1"></stop></radialGradient></defs></svg>