<svg xmlns="http://www.w3.org/2000/svg" version="1.1" xmlns:xlink="http://www.w3.org/1999/xlink" xmlns:svgjs="http://svgjs.dev/svgjs" width="1440" height="250" preserveAspectRatio="none" viewBox="0 0 1440 250"><g mask="url(&quot;#SvgjsMask1020&quot;)" fill="none"><rect width="1440" height="250" x="0" y="0" fill="rgba(225, 229, 242, 1)"></rect><path d="M26 250L276 0L451.5 0L201.5 250z" fill="url(&quot;#SvgjsLinearGradient1021&quot;)"></path><path d="M280.6 250L530.6 0L851.6 0L601.6 250z" fill="url(&quot;#SvgjsLinearGradient1021&quot;)"></path><path d="M522.2 250L772.2 0L977.7 0L727.7 250z" fill="url(&quot;#SvgjsLinearGradient1021&quot;)"></path><path d="M757.8000000000001 250L1007.8000000000001 0L1285.3000000000002 0L1035.3000000000002 250z" fill="url(&quot;#SvgjsLinearGradient1021&quot;)"></path><path d="M1397 250L1147 0L805 0L1055 250z" fill="url(&quot;#SvgjsLinearGradient1022&quot;)"></path><path d="M1200.4 250L950.4000000000001 0L881.4000000000001 0L1131.4 250z" fill="url(&quot;#SvgjsLinearGradient1022&quot;)"></path><path d="M950.8 250L700.8 0L541.8 0L791.8 250z" fill="url(&quot;#SvgjsLinearGradient1022&quot;)"></path><path d="M712.1999999999999 250L462.19999999999993 0L145.69999999999993 0L395.69999999999993 250z" fill="url(&quot;#SvgjsLinearGradient1022&quot;)"></path><path d="M1262.2204298998665 250L1440 72.22042989986647L1440 250z" fill="url(&quot;#SvgjsLinearGradient1021&quot;)"></path><path d="M0 250L177.77957010013353 250L 0 72.22042989986647z" fill="url(&quot;#SvgjsLinearGradient1022&quot;)"></path></g><defs><mask id="SvgjsMask1020"><rect width="1440" height="250" fill="#ffffff"></rect></mask><linearGradient x1="0%" y1="100%" x2="100%" y2="0%" id="SvgjsLinearGradient1021"><stop stop-color="rgba(15, 70, 185, 0.2)" offset="0"></stop><stop stop-opacity="0" stop-color="rgba(15, 70, 185, 0.2)" offset="0.66"></stop></linearGradient><linearGradient x1="100%" y1="100%" x2="0%" y2="0%" id="SvgjsLinearGradient1022"><stop stop-color="rgba(15, 70, 185, 0.2)" offset="0"></stop><stop stop-opacity="0" stop-color="rgba(15, 70, 185, 0.2)" offset="0.66"></stop></linearGradient></defs></svg>