<svg xmlns="http://www.w3.org/2000/svg" version="1.1" xmlns:xlink="http://www.w3.org/1999/xlink" xmlns:svgjs="http://svgjs.dev/svgjs" width="1440" height="560" preserveAspectRatio="none" viewBox="0 0 1440 560"><g mask="url(&quot;#SvgjsMask3661&quot;)" fill="none"><rect width="1440" height="560" x="0" y="0" fill="url(&quot;#SvgjsLinearGradient3662&quot;)"></rect><path d="M-91.69 338.76L-91.69 338.76" stroke="rgba(96, 194, 209, 1)" stroke-width="1.5"></path><path d="M-91.69 338.76L88.86 376.67" stroke="rgba(96, 194, 209, 1)" stroke-width="1.5"></path><path d="M-91.69 338.76L-93.91 526.76" stroke="rgba(96, 194, 209, 1)" stroke-width="1.5"></path><path d="M-91.69 338.76L61.94 555.86" stroke="rgba(96, 194, 209, 1)" stroke-width="1.5"></path><path d="M-91.69 338.76L75.43 646.75" stroke="rgba(96, 194, 209, 1)" stroke-width="1.5"></path><path d="M-93.91 526.76L-93.91 526.76" stroke="rgba(96, 194, 209, 1)" stroke-width="1.5"></path><path d="M-93.91 526.76L61.94 555.86" stroke="rgba(96, 194, 209, 1)" stroke-width="1.5"></path><path d="M-93.91 526.76L-91.06 706.52" stroke="rgba(96, 194, 209, 1)" stroke-width="1.5"></path><path d="M-93.91 526.76L75.43 646.75" stroke="rgba(96, 194, 209, 1)" stroke-width="1.5"></path><path d="M-93.91 526.76L88.86 376.67" stroke="rgba(96, 194, 209, 1)" stroke-width="1.5"></path><path d="M-91.06 706.52L-91.06 706.52" stroke="rgba(96, 194, 209, 1)" stroke-width="1.5"></path><path d="M-91.06 706.52L75.43 646.75" stroke="rgba(96, 194, 209, 1)" stroke-width="1.5"></path><path d="M88.86 376.67L88.86 376.67" stroke="rgba(96, 194, 209, 1)" stroke-width="1.5"></path><path d="M88.86 376.67L61.94 555.86" stroke="rgba(96, 194, 209, 1)" stroke-width="1.5"></path><path d="M61.94 555.86L61.94 555.86" stroke="rgba(96, 194, 209, 1)" stroke-width="1.5"></path><path d="M61.94 555.86L75.43 646.75" stroke="rgba(96, 194, 209, 1)" stroke-width="1.5"></path><path d="M61.94 555.86L199.59 541.41" stroke="rgba(96, 194, 209, 1)" stroke-width="1.5"></path><path d="M61.94 555.86L209.89 650.95" stroke="rgba(96, 194, 209, 1)" stroke-width="1.5"></path><path d="M75.43 646.75L75.43 646.75" stroke="rgba(96, 194, 209, 1)" stroke-width="1.5"></path><path d="M75.43 646.75L209.89 650.95" stroke="rgba(96, 194, 209, 1)" stroke-width="1.5"></path><path d="M75.43 646.75L199.59 541.41" stroke="rgba(96, 194, 209, 1)" stroke-width="1.5"></path><path d="M75.43 646.75L88.86 376.67" stroke="rgba(96, 194, 209, 1)" stroke-width="1.5"></path><path d="M199.59 541.41L199.59 541.41" stroke="rgba(96, 194, 209, 1)" stroke-width="1.5"></path><path d="M199.59 541.41L209.89 650.95" stroke="rgba(96, 194, 209, 1)" stroke-width="1.5"></path><path d="M209.89 650.95L209.89 650.95" stroke="rgba(96, 194, 209, 1)" stroke-width="1.5"></path><path d="M209.89 650.95L379.29 643.04" stroke="rgba(96, 194, 209, 1)" stroke-width="1.5"></path><path d="M346.55 408.22L346.55 408.22" stroke="rgba(96, 194, 209, 1)" stroke-width="1.5"></path><path d="M346.55 408.22L378.5 511.24" stroke="rgba(96, 194, 209, 1)" stroke-width="1.5"></path><path d="M378.5 511.24L378.5 511.24" stroke="rgba(96, 194, 209, 1)" stroke-width="1.5"></path><path d="M378.5 511.24L379.29 643.04" stroke="rgba(96, 194, 209, 1)" stroke-width="1.5"></path><path d="M378.5 511.24L199.59 541.41" stroke="rgba(96, 194, 209, 1)" stroke-width="1.5"></path><path d="M378.5 511.24L519.86 665.36" stroke="rgba(96, 194, 209, 1)" stroke-width="1.5"></path><path d="M379.29 643.04L379.29 643.04" stroke="rgba(96, 194, 209, 1)" stroke-width="1.5"></path><path d="M519.86 665.36L519.86 665.36" stroke="rgba(96, 194, 209, 1)" stroke-width="1.5"></path><path d="M519.86 665.36L379.29 643.04" stroke="rgba(96, 194, 209, 1)" stroke-width="1.5"></path><path d="M519.86 665.36L700.26 659.53" stroke="rgba(96, 194, 209, 1)" stroke-width="1.5"></path><path d="M519.86 665.36L663.4 494.07" stroke="rgba(96, 194, 209, 1)" stroke-width="1.5"></path><path d="M651.75 230.21L651.75 230.21" stroke="rgba(96, 194, 209, 1)" stroke-width="1.5"></path><path d="M651.75 230.21L674.17 388.85" stroke="rgba(96, 194, 209, 1)" stroke-width="1.5"></path><path d="M674.17 388.85L674.17 388.85" stroke="rgba(96, 194, 209, 1)" stroke-width="1.5"></path><path d="M674.17 388.85L663.4 494.07" stroke="rgba(96, 194, 209, 1)" stroke-width="1.5"></path><path d="M674.17 388.85L845.21 337.71" stroke="rgba(96, 194, 209, 1)" stroke-width="1.5"></path><path d="M674.17 388.85L830.2 494.04" stroke="rgba(96, 194, 209, 1)" stroke-width="1.5"></path><path d="M674.17 388.85L824.81 210.13" stroke="rgba(96, 194, 209, 1)" stroke-width="1.5"></path><path d="M663.4 494.07L663.4 494.07" stroke="rgba(96, 194, 209, 1)" stroke-width="1.5"></path><path d="M663.4 494.07L830.2 494.04" stroke="rgba(96, 194, 209, 1)" stroke-width="1.5"></path><path d="M663.4 494.07L700.26 659.53" stroke="rgba(96, 194, 209, 1)" stroke-width="1.5"></path><path d="M663.4 494.07L845.21 337.71" stroke="rgba(96, 194, 209, 1)" stroke-width="1.5"></path><path d="M700.26 659.53L700.26 659.53" stroke="rgba(96, 194, 209, 1)" stroke-width="1.5"></path><path d="M700.26 659.53L855.91 668.87" stroke="rgba(96, 194, 209, 1)" stroke-width="1.5"></path><path d="M700.26 659.53L830.2 494.04" stroke="rgba(96, 194, 209, 1)" stroke-width="1.5"></path><path d="M824.81 210.13L824.81 210.13" stroke="rgba(96, 194, 209, 1)" stroke-width="1.5"></path><path d="M824.81 210.13L951.94 206.14" stroke="rgba(96, 194, 209, 1)" stroke-width="1.5"></path><path d="M824.81 210.13L845.21 337.71" stroke="rgba(96, 194, 209, 1)" stroke-width="1.5"></path><path d="M845.21 337.71L845.21 337.71" stroke="rgba(96, 194, 209, 1)" stroke-width="1.5"></path><path d="M845.21 337.71L978.76 369.75" stroke="rgba(96, 194, 209, 1)" stroke-width="1.5"></path><path d="M845.21 337.71L830.2 494.04" stroke="rgba(96, 194, 209, 1)" stroke-width="1.5"></path><path d="M845.21 337.71L951.94 206.14" stroke="rgba(96, 194, 209, 1)" stroke-width="1.5"></path><path d="M845.21 337.71L946.23 516.41" stroke="rgba(96, 194, 209, 1)" stroke-width="1.5"></path><path d="M830.2 494.04L830.2 494.04" stroke="rgba(96, 194, 209, 1)" stroke-width="1.5"></path><path d="M830.2 494.04L946.23 516.41" stroke="rgba(96, 194, 209, 1)" stroke-width="1.5"></path><path d="M830.2 494.04L855.91 668.87" stroke="rgba(96, 194, 209, 1)" stroke-width="1.5"></path><path d="M830.2 494.04L978.76 369.75" stroke="rgba(96, 194, 209, 1)" stroke-width="1.5"></path><path d="M855.91 668.87L855.91 668.87" stroke="rgba(96, 194, 209, 1)" stroke-width="1.5"></path><path d="M855.91 668.87L952.9 701.05" stroke="rgba(96, 194, 209, 1)" stroke-width="1.5"></path><path d="M855.91 668.87L946.23 516.41" stroke="rgba(96, 194, 209, 1)" stroke-width="1.5"></path><path d="M855.91 668.87L663.4 494.07" stroke="rgba(96, 194, 209, 1)" stroke-width="1.5"></path><path d="M855.91 668.87L1133.38 644.17" stroke="rgba(96, 194, 209, 1)" stroke-width="1.5"></path><path d="M969.99 -75.77L969.99 -75.77" stroke="rgba(96, 194, 209, 1)" stroke-width="1.5"></path><path d="M969.99 -75.77L1099.26 -71.45" stroke="rgba(96, 194, 209, 1)" stroke-width="1.5"></path><path d="M969.99 -75.77L1007.81 63.94" stroke="rgba(96, 194, 209, 1)" stroke-width="1.5"></path><path d="M969.99 -75.77L1087.69 68.77" stroke="rgba(96, 194, 209, 1)" stroke-width="1.5"></path><path d="M969.99 -75.77L951.94 206.14" stroke="rgba(96, 194, 209, 1)" stroke-width="1.5"></path><path d="M969.99 -75.77L1286.82 -102.58" stroke="rgba(96, 194, 209, 1)" stroke-width="1.5"></path><path d="M969.99 -75.77L824.81 210.13" stroke="rgba(96, 194, 209, 1)" stroke-width="1.5"></path><path d="M1007.81 63.94L1007.81 63.94" stroke="rgba(96, 194, 209, 1)" stroke-width="1.5"></path><path d="M1007.81 63.94L1087.69 68.77" stroke="rgba(96, 194, 209, 1)" stroke-width="1.5"></path><path d="M1007.81 63.94L951.94 206.14" stroke="rgba(96, 194, 209, 1)" stroke-width="1.5"></path><path d="M1007.81 63.94L1099.26 -71.45" stroke="rgba(96, 194, 209, 1)" stroke-width="1.5"></path><path d="M1007.81 63.94L1140.47 197.69" stroke="rgba(96, 194, 209, 1)" stroke-width="1.5"></path><path d="M951.94 206.14L951.94 206.14" stroke="rgba(96, 194, 209, 1)" stroke-width="1.5"></path><path d="M951.94 206.14L978.76 369.75" stroke="rgba(96, 194, 209, 1)" stroke-width="1.5"></path><path d="M978.76 369.75L978.76 369.75" stroke="rgba(96, 194, 209, 1)" stroke-width="1.5"></path><path d="M978.76 369.75L946.23 516.41" stroke="rgba(96, 194, 209, 1)" stroke-width="1.5"></path><path d="M946.23 516.41L946.23 516.41" stroke="rgba(96, 194, 209, 1)" stroke-width="1.5"></path><path d="M946.23 516.41L952.9 701.05" stroke="rgba(96, 194, 209, 1)" stroke-width="1.5"></path><path d="M946.23 516.41L1160.1 551.51" stroke="rgba(96, 194, 209, 1)" stroke-width="1.5"></path><path d="M952.9 701.05L952.9 701.05" stroke="rgba(96, 194, 209, 1)" stroke-width="1.5"></path><path d="M952.9 701.05L1133.38 644.17" stroke="rgba(96, 194, 209, 1)" stroke-width="1.5"></path><path d="M1099.26 -71.45L1099.26 -71.45" stroke="rgba(96, 194, 209, 1)" stroke-width="1.5"></path><path d="M1099.26 -71.45L1087.69 68.77" stroke="rgba(96, 194, 209, 1)" stroke-width="1.5"></path><path d="M1099.26 -71.45L1286.82 -102.58" stroke="rgba(96, 194, 209, 1)" stroke-width="1.5"></path><path d="M1099.26 -71.45L1301.68 39.18" stroke="rgba(96, 194, 209, 1)" stroke-width="1.5"></path><path d="M1087.69 68.77L1087.69 68.77" stroke="rgba(96, 194, 209, 1)" stroke-width="1.5"></path><path d="M1087.69 68.77L1140.47 197.69" stroke="rgba(96, 194, 209, 1)" stroke-width="1.5"></path><path d="M1087.69 68.77L951.94 206.14" stroke="rgba(96, 194, 209, 1)" stroke-width="1.5"></path><path d="M1087.69 68.77L1301.68 39.18" stroke="rgba(96, 194, 209, 1)" stroke-width="1.5"></path><path d="M1140.47 197.69L1140.47 197.69" stroke="rgba(96, 194, 209, 1)" stroke-width="1.5"></path><path d="M1140.47 197.69L1288.67 212.04" stroke="rgba(96, 194, 209, 1)" stroke-width="1.5"></path><path d="M1140.47 197.69L1139.18 363.79" stroke="rgba(96, 194, 209, 1)" stroke-width="1.5"></path><path d="M1139.18 363.79L1139.18 363.79" stroke="rgba(96, 194, 209, 1)" stroke-width="1.5"></path><path d="M1139.18 363.79L978.76 369.75" stroke="rgba(96, 194, 209, 1)" stroke-width="1.5"></path><path d="M1160.1 551.51L1160.1 551.51" stroke="rgba(96, 194, 209, 1)" stroke-width="1.5"></path><path d="M1160.1 551.51L1133.38 644.17" stroke="rgba(96, 194, 209, 1)" stroke-width="1.5"></path><path d="M1160.1 551.51L1284.31 497.88" stroke="rgba(96, 194, 209, 1)" stroke-width="1.5"></path><path d="M1160.1 551.51L1139.18 363.79" stroke="rgba(96, 194, 209, 1)" stroke-width="1.5"></path><path d="M1160.1 551.51L1280.98 697.03" stroke="rgba(96, 194, 209, 1)" stroke-width="1.5"></path><path d="M1160.1 551.51L1303.78 407.43" stroke="rgba(96, 194, 209, 1)" stroke-width="1.5"></path><path d="M1133.38 644.17L1133.38 644.17" stroke="rgba(96, 194, 209, 1)" stroke-width="1.5"></path><path d="M1133.38 644.17L1280.98 697.03" stroke="rgba(96, 194, 209, 1)" stroke-width="1.5"></path><path d="M1286.82 -102.58L1286.82 -102.58" stroke="rgba(96, 194, 209, 1)" stroke-width="1.5"></path><path d="M1286.82 -102.58L1301.68 39.18" stroke="rgba(96, 194, 209, 1)" stroke-width="1.5"></path><path d="M1286.82 -102.58L1434.3 -42.47" stroke="rgba(96, 194, 209, 1)" stroke-width="1.5"></path><path d="M1286.82 -102.58L1443.33 40.42" stroke="rgba(96, 194, 209, 1)" stroke-width="1.5"></path><path d="M1286.82 -102.58L1087.69 68.77" stroke="rgba(96, 194, 209, 1)" stroke-width="1.5"></path><path d="M1286.82 -102.58L1288.67 212.04" stroke="rgba(96, 194, 209, 1)" stroke-width="1.5"></path><path d="M1301.68 39.18L1301.68 39.18" stroke="rgba(96, 194, 209, 1)" stroke-width="1.5"></path><path d="M1301.68 39.18L1443.33 40.42" stroke="rgba(96, 194, 209, 1)" stroke-width="1.5"></path><path d="M1301.68 39.18L1434.3 -42.47" stroke="rgba(96, 194, 209, 1)" stroke-width="1.5"></path><path d="M1288.67 212.04L1288.67 212.04" stroke="rgba(96, 194, 209, 1)" stroke-width="1.5"></path><path d="M1288.67 212.04L1406.34 240.38" stroke="rgba(96, 194, 209, 1)" stroke-width="1.5"></path><path d="M1288.67 212.04L1301.68 39.18" stroke="rgba(96, 194, 209, 1)" stroke-width="1.5"></path><path d="M1303.78 407.43L1303.78 407.43" stroke="rgba(96, 194, 209, 1)" stroke-width="1.5"></path><path d="M1303.78 407.43L1284.31 497.88" stroke="rgba(96, 194, 209, 1)" stroke-width="1.5"></path><path d="M1303.78 407.43L1139.18 363.79" stroke="rgba(96, 194, 209, 1)" stroke-width="1.5"></path><path d="M1284.31 497.88L1284.31 497.88" stroke="rgba(96, 194, 209, 1)" stroke-width="1.5"></path><path d="M1280.98 697.03L1280.98 697.03" stroke="rgba(96, 194, 209, 1)" stroke-width="1.5"></path><path d="M1280.98 697.03L1422.5 708.98" stroke="rgba(96, 194, 209, 1)" stroke-width="1.5"></path><path d="M1280.98 697.03L1284.31 497.88" stroke="rgba(96, 194, 209, 1)" stroke-width="1.5"></path><path d="M1280.98 697.03L1431.53 530.14" stroke="rgba(96, 194, 209, 1)" stroke-width="1.5"></path><path d="M1280.98 697.03L1303.78 407.43" stroke="rgba(96, 194, 209, 1)" stroke-width="1.5"></path><path d="M1434.3 -42.47L1434.3 -42.47" stroke="rgba(96, 194, 209, 1)" stroke-width="1.5"></path><path d="M1434.3 -42.47L1443.33 40.42" stroke="rgba(96, 194, 209, 1)" stroke-width="1.5"></path><path d="M1434.3 -42.47L1607.1 -64" stroke="rgba(96, 194, 209, 1)" stroke-width="1.5"></path><path d="M1443.33 40.42L1443.33 40.42" stroke="rgba(96, 194, 209, 1)" stroke-width="1.5"></path><path d="M1443.33 40.42L1596.6 68.82" stroke="rgba(96, 194, 209, 1)" stroke-width="1.5"></path><path d="M1443.33 40.42L1607.1 -64" stroke="rgba(96, 194, 209, 1)" stroke-width="1.5"></path><path d="M1443.33 40.42L1558.24 201.41" stroke="rgba(96, 194, 209, 1)" stroke-width="1.5"></path><path d="M1443.33 40.42L1406.34 240.38" stroke="rgba(96, 194, 209, 1)" stroke-width="1.5"></path><path d="M1406.34 240.38L1406.34 240.38" stroke="rgba(96, 194, 209, 1)" stroke-width="1.5"></path><path d="M1406.34 240.38L1558.24 201.41" stroke="rgba(96, 194, 209, 1)" stroke-width="1.5"></path><path d="M1431.53 530.14L1431.53 530.14" stroke="rgba(96, 194, 209, 1)" stroke-width="1.5"></path><path d="M1431.53 530.14L1284.31 497.88" stroke="rgba(96, 194, 209, 1)" stroke-width="1.5"></path><path d="M1431.53 530.14L1303.78 407.43" stroke="rgba(96, 194, 209, 1)" stroke-width="1.5"></path><path d="M1422.5 708.98L1422.5 708.98" stroke="rgba(96, 194, 209, 1)" stroke-width="1.5"></path><path d="M1422.5 708.98L1584.83 695.68" stroke="rgba(96, 194, 209, 1)" stroke-width="1.5"></path><path d="M1607.1 -64L1607.1 -64" stroke="rgba(96, 194, 209, 1)" stroke-width="1.5"></path><path d="M1607.1 -64L1596.6 68.82" stroke="rgba(96, 194, 209, 1)" stroke-width="1.5"></path><path d="M1596.6 68.82L1596.6 68.82" stroke="rgba(96, 194, 209, 1)" stroke-width="1.5"></path><path d="M1596.6 68.82L1558.24 201.41" stroke="rgba(96, 194, 209, 1)" stroke-width="1.5"></path><path d="M1558.24 201.41L1558.24 201.41" stroke="rgba(96, 194, 209, 1)" stroke-width="1.5"></path><path d="M1558.24 201.41L1570.54 409.12" stroke="rgba(96, 194, 209, 1)" stroke-width="1.5"></path><path d="M1558.24 201.41L1288.67 212.04" stroke="rgba(96, 194, 209, 1)" stroke-width="1.5"></path><path d="M1558.24 201.41L1607.1 -64" stroke="rgba(96, 194, 209, 1)" stroke-width="1.5"></path><path d="M1570.54 409.12L1570.54 409.12" stroke="rgba(96, 194, 209, 1)" stroke-width="1.5"></path><path d="M1570.54 409.12L1431.53 530.14" stroke="rgba(96, 194, 209, 1)" stroke-width="1.5"></path><path d="M1584.83 695.68L1584.83 695.68" stroke="rgba(96, 194, 209, 1)" stroke-width="1.5"></path><path d="M1584.83 695.68L1431.53 530.14" stroke="rgba(96, 194, 209, 1)" stroke-width="1.5"></path><path d="M1584.83 695.68L1570.54 409.12" stroke="rgba(96, 194, 209, 1)" stroke-width="1.5"></path><circle r="5" cx="-91.69" cy="338.76" fill="rgba(96, 194, 209, 1)"></circle><circle r="5" cx="-93.91" cy="526.76" fill="rgba(96, 194, 209, 1)"></circle><circle r="5" cx="-91.06" cy="706.52" fill="rgba(96, 194, 209, 1)"></circle><circle r="5" cx="88.86" cy="376.67" fill="rgba(96, 194, 209, 1)"></circle><circle r="5" cx="61.94" cy="555.86" fill="rgba(96, 194, 209, 1)"></circle><circle r="5" cx="75.43" cy="646.75" fill="rgba(96, 194, 209, 1)"></circle><circle r="5" cx="199.59" cy="541.41" fill="rgba(96, 194, 209, 1)"></circle><circle r="5" cx="209.89" cy="650.95" fill="rgba(96, 194, 209, 1)"></circle><circle r="5" cx="346.55" cy="408.22" fill="rgba(96, 194, 209, 1)"></circle><circle r="5" cx="378.5" cy="511.24" fill="rgba(96, 194, 209, 1)"></circle><circle r="5" cx="379.29" cy="643.04" fill="rgba(96, 194, 209, 1)"></circle><circle r="5" cx="519.86" cy="665.36" fill="rgba(96, 194, 209, 1)"></circle><circle r="5" cx="651.75" cy="230.21" fill="rgba(96, 194, 209, 1)"></circle><circle r="5" cx="674.17" cy="388.85" fill="rgba(96, 194, 209, 1)"></circle><circle r="5" cx="663.4" cy="494.07" fill="rgba(96, 194, 209, 1)"></circle><circle r="5" cx="700.26" cy="659.53" fill="rgba(96, 194, 209, 1)"></circle><circle r="5" cx="824.81" cy="210.13" fill="rgba(96, 194, 209, 1)"></circle><circle r="5" cx="845.21" cy="337.71" fill="rgba(96, 194, 209, 1)"></circle><circle r="5" cx="830.2" cy="494.04" fill="rgba(96, 194, 209, 1)"></circle><circle r="5" cx="855.91" cy="668.87" fill="rgba(96, 194, 209, 1)"></circle><circle r="5" cx="969.99" cy="-75.77" fill="rgba(96, 194, 209, 1)"></circle><circle r="5" cx="1007.81" cy="63.94" fill="rgba(96, 194, 209, 1)"></circle><circle r="5" cx="951.94" cy="206.14" fill="rgba(96, 194, 209, 1)"></circle><circle r="5" cx="978.76" cy="369.75" fill="rgba(96, 194, 209, 1)"></circle><circle r="5" cx="946.23" cy="516.41" fill="rgba(96, 194, 209, 1)"></circle><circle r="5" cx="952.9" cy="701.05" fill="rgba(96, 194, 209, 1)"></circle><circle r="5" cx="1099.26" cy="-71.45" fill="rgba(96, 194, 209, 1)"></circle><circle r="5" cx="1087.69" cy="68.77" fill="rgba(96, 194, 209, 1)"></circle><circle r="5" cx="1140.47" cy="197.69" fill="rgba(96, 194, 209, 1)"></circle><circle r="5" cx="1139.18" cy="363.79" fill="rgba(96, 194, 209, 1)"></circle><circle r="5" cx="1160.1" cy="551.51" fill="rgba(96, 194, 209, 1)"></circle><circle r="5" cx="1133.38" cy="644.17" fill="rgba(96, 194, 209, 1)"></circle><circle r="5" cx="1286.82" cy="-102.58" fill="rgba(96, 194, 209, 1)"></circle><circle r="5" cx="1301.68" cy="39.18" fill="rgba(96, 194, 209, 1)"></circle><circle r="5" cx="1288.67" cy="212.04" fill="rgba(96, 194, 209, 1)"></circle><circle r="5" cx="1303.78" cy="407.43" fill="rgba(96, 194, 209, 1)"></circle><circle r="5" cx="1284.31" cy="497.88" fill="rgba(96, 194, 209, 1)"></circle><circle r="5" cx="1280.98" cy="697.03" fill="rgba(96, 194, 209, 1)"></circle><circle r="5" cx="1434.3" cy="-42.47" fill="rgba(96, 194, 209, 1)"></circle><circle r="5" cx="1443.33" cy="40.42" fill="rgba(96, 194, 209, 1)"></circle><circle r="5" cx="1406.34" cy="240.38" fill="rgba(96, 194, 209, 1)"></circle><circle r="5" cx="1431.53" cy="530.14" fill="rgba(96, 194, 209, 1)"></circle><circle r="5" cx="1422.5" cy="708.98" fill="rgba(96, 194, 209, 1)"></circle><circle r="5" cx="1607.1" cy="-64" fill="rgba(96, 194, 209, 1)"></circle><circle r="5" cx="1596.6" cy="68.82" fill="rgba(96, 194, 209, 1)"></circle><circle r="5" cx="1558.24" cy="201.41" fill="rgba(96, 194, 209, 1)"></circle><circle r="5" cx="1570.54" cy="409.12" fill="rgba(96, 194, 209, 1)"></circle><circle r="5" cx="1584.83" cy="695.68" fill="rgba(96, 194, 209, 1)"></circle><path d="M-102.46 517.98L-102.46 517.98" stroke="hsl(168, 18.8%, 89.2%)" stroke-width="1.5"></path><path d="M-102.46 517.98L-77.12 679.94" stroke="hsl(168, 18.8%, 89.2%)" stroke-width="1.5"></path><path d="M-102.46 517.98L75.96 551.61" stroke="hsl(168, 18.8%, 89.2%)" stroke-width="1.5"></path><path d="M-102.46 517.98L256.48 516.8" stroke="hsl(168, 18.8%, 89.2%)" stroke-width="1.5"></path><path d="M-102.46 517.98L209.54 707.64" stroke="hsl(168, 18.8%, 89.2%)" stroke-width="1.5"></path><path d="M384.69 550.22L384.69 550.22" stroke="hsl(168, 18.8%, 89.2%)" stroke-width="1.5"></path><path d="M384.69 550.22L380.72 641.84" stroke="hsl(168, 18.8%, 89.2%)" stroke-width="1.5"></path><path d="M384.69 550.22L256.48 516.8" stroke="hsl(168, 18.8%, 89.2%)" stroke-width="1.5"></path><path d="M384.69 550.22L560.26 506.6" stroke="hsl(168, 18.8%, 89.2%)" stroke-width="1.5"></path><path d="M560.26 506.6L560.26 506.6" stroke="hsl(168, 18.8%, 89.2%)" stroke-width="1.5"></path><path d="M560.26 506.6L665.69 488.66" stroke="hsl(168, 18.8%, 89.2%)" stroke-width="1.5"></path><path d="M560.26 506.6L536.45 695.8" stroke="hsl(168, 18.8%, 89.2%)" stroke-width="1.5"></path><path d="M560.26 506.6L662.6 687.78" stroke="hsl(168, 18.8%, 89.2%)" stroke-width="1.5"></path><path d="M536.45 695.8L536.45 695.8" stroke="hsl(168, 18.8%, 89.2%)" stroke-width="1.5"></path><path d="M536.45 695.8L662.6 687.78" stroke="hsl(168, 18.8%, 89.2%)" stroke-width="1.5"></path><path d="M536.45 695.8L380.72 641.84" stroke="hsl(168, 18.8%, 89.2%)" stroke-width="1.5"></path><path d="M536.45 695.8L384.69 550.22" stroke="hsl(168, 18.8%, 89.2%)" stroke-width="1.5"></path><path d="M536.45 695.8L665.69 488.66" stroke="hsl(168, 18.8%, 89.2%)" stroke-width="1.5"></path><path d="M536.45 695.8L811.57 646.8" stroke="hsl(168, 18.8%, 89.2%)" stroke-width="1.5"></path><path d="M803.79 341.11L803.79 341.11" stroke="hsl(168, 18.8%, 89.2%)" stroke-width="1.5"></path><path d="M803.79 341.11L832.43 528.7" stroke="hsl(168, 18.8%, 89.2%)" stroke-width="1.5"></path><path d="M803.79 341.11L665.69 488.66" stroke="hsl(168, 18.8%, 89.2%)" stroke-width="1.5"></path><path d="M1004.84 402.91L1004.84 402.91" stroke="hsl(168, 18.8%, 89.2%)" stroke-width="1.5"></path><path d="M1004.84 402.91L939.15 494.95" stroke="hsl(168, 18.8%, 89.2%)" stroke-width="1.5"></path><path d="M1004.84 402.91L1117.59 354.28" stroke="hsl(168, 18.8%, 89.2%)" stroke-width="1.5"></path><path d="M1004.84 402.91L1096.49 542.24" stroke="hsl(168, 18.8%, 89.2%)" stroke-width="1.5"></path><path d="M1435.87 107.39L1435.87 107.39" stroke="hsl(168, 18.8%, 89.2%)" stroke-width="1.5"></path><path d="M1435.87 107.39L1452.14 253.7" stroke="hsl(168, 18.8%, 89.2%)" stroke-width="1.5"></path><path d="M1435.87 107.39L1270.4 96.25" stroke="hsl(168, 18.8%, 89.2%)" stroke-width="1.5"></path><path d="M1435.87 107.39L1602.74 61.06" stroke="hsl(168, 18.8%, 89.2%)" stroke-width="1.5"></path><path d="M1435.87 107.39L1578.92 211.23" stroke="hsl(168, 18.8%, 89.2%)" stroke-width="1.5"></path><path d="M-77.12 679.94L-77.12 679.94" stroke="hsl(168, 18.8%, 89.2%)" stroke-width="1.5"></path><path d="M-77.12 679.94L75.96 551.61" stroke="hsl(168, 18.8%, 89.2%)" stroke-width="1.5"></path><path d="M-77.12 679.94L209.54 707.64" stroke="hsl(168, 18.8%, 89.2%)" stroke-width="1.5"></path><path d="M75.96 551.61L75.96 551.61" stroke="hsl(168, 18.8%, 89.2%)" stroke-width="1.5"></path><path d="M75.96 551.61L256.48 516.8" stroke="hsl(168, 18.8%, 89.2%)" stroke-width="1.5"></path><path d="M75.96 551.61L209.54 707.64" stroke="hsl(168, 18.8%, 89.2%)" stroke-width="1.5"></path><path d="M75.96 551.61L384.69 550.22" stroke="hsl(168, 18.8%, 89.2%)" stroke-width="1.5"></path><path d="M256.48 516.8L256.48 516.8" stroke="hsl(168, 18.8%, 89.2%)" stroke-width="1.5"></path><path d="M256.48 516.8L380.72 641.84" stroke="hsl(168, 18.8%, 89.2%)" stroke-width="1.5"></path><path d="M209.54 707.64L209.54 707.64" stroke="hsl(168, 18.8%, 89.2%)" stroke-width="1.5"></path><path d="M209.54 707.64L380.72 641.84" stroke="hsl(168, 18.8%, 89.2%)" stroke-width="1.5"></path><path d="M209.54 707.64L256.48 516.8" stroke="hsl(168, 18.8%, 89.2%)" stroke-width="1.5"></path><path d="M209.54 707.64L384.69 550.22" stroke="hsl(168, 18.8%, 89.2%)" stroke-width="1.5"></path><path d="M380.72 641.84L380.72 641.84" stroke="hsl(168, 18.8%, 89.2%)" stroke-width="1.5"></path><path d="M380.72 641.84L560.26 506.6" stroke="hsl(168, 18.8%, 89.2%)" stroke-width="1.5"></path><path d="M665.69 488.66L665.69 488.66" stroke="hsl(168, 18.8%, 89.2%)" stroke-width="1.5"></path><path d="M665.69 488.66L832.43 528.7" stroke="hsl(168, 18.8%, 89.2%)" stroke-width="1.5"></path><path d="M665.69 488.66L662.6 687.78" stroke="hsl(168, 18.8%, 89.2%)" stroke-width="1.5"></path><path d="M665.69 488.66L811.57 646.8" stroke="hsl(168, 18.8%, 89.2%)" stroke-width="1.5"></path><path d="M662.6 687.78L662.6 687.78" stroke="hsl(168, 18.8%, 89.2%)" stroke-width="1.5"></path><path d="M662.6 687.78L811.57 646.8" stroke="hsl(168, 18.8%, 89.2%)" stroke-width="1.5"></path><path d="M832.43 528.7L832.43 528.7" stroke="hsl(168, 18.8%, 89.2%)" stroke-width="1.5"></path><path d="M832.43 528.7L939.15 494.95" stroke="hsl(168, 18.8%, 89.2%)" stroke-width="1.5"></path><path d="M832.43 528.7L811.57 646.8" stroke="hsl(168, 18.8%, 89.2%)" stroke-width="1.5"></path><path d="M832.43 528.7L982.34 669.48" stroke="hsl(168, 18.8%, 89.2%)" stroke-width="1.5"></path><path d="M832.43 528.7L1004.84 402.91" stroke="hsl(168, 18.8%, 89.2%)" stroke-width="1.5"></path><path d="M811.57 646.8L811.57 646.8" stroke="hsl(168, 18.8%, 89.2%)" stroke-width="1.5"></path><path d="M811.57 646.8L982.34 669.48" stroke="hsl(168, 18.8%, 89.2%)" stroke-width="1.5"></path><path d="M811.57 646.8L939.15 494.95" stroke="hsl(168, 18.8%, 89.2%)" stroke-width="1.5"></path><path d="M939.15 494.95L939.15 494.95" stroke="hsl(168, 18.8%, 89.2%)" stroke-width="1.5"></path><path d="M939.15 494.95L1096.49 542.24" stroke="hsl(168, 18.8%, 89.2%)" stroke-width="1.5"></path><path d="M939.15 494.95L982.34 669.48" stroke="hsl(168, 18.8%, 89.2%)" stroke-width="1.5"></path><path d="M982.34 669.48L982.34 669.48" stroke="hsl(168, 18.8%, 89.2%)" stroke-width="1.5"></path><path d="M982.34 669.48L1105.08 682.69" stroke="hsl(168, 18.8%, 89.2%)" stroke-width="1.5"></path><path d="M982.34 669.48L1096.49 542.24" stroke="hsl(168, 18.8%, 89.2%)" stroke-width="1.5"></path><path d="M982.34 669.48L1004.84 402.91" stroke="hsl(168, 18.8%, 89.2%)" stroke-width="1.5"></path><path d="M1117.59 354.28L1117.59 354.28" stroke="hsl(168, 18.8%, 89.2%)" stroke-width="1.5"></path><path d="M1117.59 354.28L1096.49 542.24" stroke="hsl(168, 18.8%, 89.2%)" stroke-width="1.5"></path><path d="M1096.49 542.24L1096.49 542.24" stroke="hsl(168, 18.8%, 89.2%)" stroke-width="1.5"></path><path d="M1096.49 542.24L1105.08 682.69" stroke="hsl(168, 18.8%, 89.2%)" stroke-width="1.5"></path><path d="M1105.08 682.69L1105.08 682.69" stroke="hsl(168, 18.8%, 89.2%)" stroke-width="1.5"></path><path d="M1266.96 -100.31L1266.96 -100.31" stroke="hsl(168, 18.8%, 89.2%)" stroke-width="1.5"></path><path d="M1266.96 -100.31L1444.22 -84.71" stroke="hsl(168, 18.8%, 89.2%)" stroke-width="1.5"></path><path d="M1266.96 -100.31L1270.4 96.25" stroke="hsl(168, 18.8%, 89.2%)" stroke-width="1.5"></path><path d="M1270.4 96.25L1270.4 96.25" stroke="hsl(168, 18.8%, 89.2%)" stroke-width="1.5"></path><path d="M1270.4 96.25L1258.54 203.38" stroke="hsl(168, 18.8%, 89.2%)" stroke-width="1.5"></path><path d="M1258.54 203.38L1258.54 203.38" stroke="hsl(168, 18.8%, 89.2%)" stroke-width="1.5"></path><path d="M1258.54 203.38L1452.14 253.7" stroke="hsl(168, 18.8%, 89.2%)" stroke-width="1.5"></path><path d="M1258.54 203.38L1435.87 107.39" stroke="hsl(168, 18.8%, 89.2%)" stroke-width="1.5"></path><path d="M1262.61 490.24L1262.61 490.24" stroke="hsl(168, 18.8%, 89.2%)" stroke-width="1.5"></path><path d="M1262.61 490.24L1311.01 645.27" stroke="hsl(168, 18.8%, 89.2%)" stroke-width="1.5"></path><path d="M1262.61 490.24L1096.49 542.24" stroke="hsl(168, 18.8%, 89.2%)" stroke-width="1.5"></path><path d="M1311.01 645.27L1311.01 645.27" stroke="hsl(168, 18.8%, 89.2%)" stroke-width="1.5"></path><path d="M1311.01 645.27L1397.62 646.64" stroke="hsl(168, 18.8%, 89.2%)" stroke-width="1.5"></path><path d="M1311.01 645.27L1105.08 682.69" stroke="hsl(168, 18.8%, 89.2%)" stroke-width="1.5"></path><path d="M1311.01 645.27L1096.49 542.24" stroke="hsl(168, 18.8%, 89.2%)" stroke-width="1.5"></path><path d="M1311.01 645.27L1578.05 676.73" stroke="hsl(168, 18.8%, 89.2%)" stroke-width="1.5"></path><path d="M1311.01 645.27L1404.8 377.86" stroke="hsl(168, 18.8%, 89.2%)" stroke-width="1.5"></path><path d="M1444.22 -84.71L1444.22 -84.71" stroke="hsl(168, 18.8%, 89.2%)" stroke-width="1.5"></path><path d="M1444.22 -84.71L1569.23 -99.55" stroke="hsl(168, 18.8%, 89.2%)" stroke-width="1.5"></path><path d="M1444.22 -84.71L1435.87 107.39" stroke="hsl(168, 18.8%, 89.2%)" stroke-width="1.5"></path><path d="M1444.22 -84.71L1602.74 61.06" stroke="hsl(168, 18.8%, 89.2%)" stroke-width="1.5"></path><path d="M1444.22 -84.71L1270.4 96.25" stroke="hsl(168, 18.8%, 89.2%)" stroke-width="1.5"></path><path d="M1444.22 -84.71L1578.92 211.23" stroke="hsl(168, 18.8%, 89.2%)" stroke-width="1.5"></path><path d="M1452.14 253.7L1452.14 253.7" stroke="hsl(168, 18.8%, 89.2%)" stroke-width="1.5"></path><path d="M1452.14 253.7L1404.8 377.86" stroke="hsl(168, 18.8%, 89.2%)" stroke-width="1.5"></path><path d="M1452.14 253.7L1578.92 211.23" stroke="hsl(168, 18.8%, 89.2%)" stroke-width="1.5"></path><path d="M1452.14 253.7L1552.81 403.92" stroke="hsl(168, 18.8%, 89.2%)" stroke-width="1.5"></path><path d="M1404.8 377.86L1404.8 377.86" stroke="hsl(168, 18.8%, 89.2%)" stroke-width="1.5"></path><path d="M1404.8 377.86L1552.81 403.92" stroke="hsl(168, 18.8%, 89.2%)" stroke-width="1.5"></path><path d="M1404.8 377.86L1262.61 490.24" stroke="hsl(168, 18.8%, 89.2%)" stroke-width="1.5"></path><path d="M1404.8 377.86L1258.54 203.38" stroke="hsl(168, 18.8%, 89.2%)" stroke-width="1.5"></path><path d="M1404.8 377.86L1599.15 508.31" stroke="hsl(168, 18.8%, 89.2%)" stroke-width="1.5"></path><path d="M1404.8 377.86L1578.92 211.23" stroke="hsl(168, 18.8%, 89.2%)" stroke-width="1.5"></path><path d="M1397.62 646.64L1397.62 646.64" stroke="hsl(168, 18.8%, 89.2%)" stroke-width="1.5"></path><path d="M1397.62 646.64L1578.05 676.73" stroke="hsl(168, 18.8%, 89.2%)" stroke-width="1.5"></path><path d="M1397.62 646.64L1262.61 490.24" stroke="hsl(168, 18.8%, 89.2%)" stroke-width="1.5"></path><path d="M1397.62 646.64L1599.15 508.31" stroke="hsl(168, 18.8%, 89.2%)" stroke-width="1.5"></path><path d="M1397.62 646.64L1404.8 377.86" stroke="hsl(168, 18.8%, 89.2%)" stroke-width="1.5"></path><path d="M1569.23 -99.55L1569.23 -99.55" stroke="hsl(168, 18.8%, 89.2%)" stroke-width="1.5"></path><path d="M1569.23 -99.55L1602.74 61.06" stroke="hsl(168, 18.8%, 89.2%)" stroke-width="1.5"></path><path d="M1602.74 61.06L1602.74 61.06" stroke="hsl(168, 18.8%, 89.2%)" stroke-width="1.5"></path><path d="M1602.74 61.06L1578.92 211.23" stroke="hsl(168, 18.8%, 89.2%)" stroke-width="1.5"></path><path d="M1578.92 211.23L1578.92 211.23" stroke="hsl(168, 18.8%, 89.2%)" stroke-width="1.5"></path><path d="M1552.81 403.92L1552.81 403.92" stroke="hsl(168, 18.8%, 89.2%)" stroke-width="1.5"></path><path d="M1552.81 403.92L1599.15 508.31" stroke="hsl(168, 18.8%, 89.2%)" stroke-width="1.5"></path><path d="M1552.81 403.92L1578.92 211.23" stroke="hsl(168, 18.8%, 89.2%)" stroke-width="1.5"></path><path d="M1599.15 508.31L1599.15 508.31" stroke="hsl(168, 18.8%, 89.2%)" stroke-width="1.5"></path><path d="M1599.15 508.31L1578.05 676.73" stroke="hsl(168, 18.8%, 89.2%)" stroke-width="1.5"></path><path d="M1578.05 676.73L1578.05 676.73" stroke="hsl(168, 18.8%, 89.2%)" stroke-width="1.5"></path><path d="M1578.05 676.73L1552.81 403.92" stroke="hsl(168, 18.8%, 89.2%)" stroke-width="1.5"></path><circle r="25" cx="-102.46" cy="517.98" fill="url(&quot;#SvgjsRadialGradient3663&quot;)"></circle><circle r="25" cx="384.69" cy="550.22" fill="url(&quot;#SvgjsRadialGradient3663&quot;)"></circle><circle r="25" cx="560.26" cy="506.6" fill="url(&quot;#SvgjsRadialGradient3663&quot;)"></circle><circle r="25" cx="536.45" cy="695.8" fill="url(&quot;#SvgjsRadialGradient3663&quot;)"></circle><circle r="25" cx="803.79" cy="341.11" fill="url(&quot;#SvgjsRadialGradient3663&quot;)"></circle><circle r="25" cx="1004.84" cy="402.91" fill="url(&quot;#SvgjsRadialGradient3663&quot;)"></circle><circle r="25" cx="1435.87" cy="107.39" fill="url(&quot;#SvgjsRadialGradient3663&quot;)"></circle><circle r="5" cx="-77.12" cy="679.94" fill="#d0dfdc"></circle><circle r="5" cx="75.96" cy="551.61" fill="#d0dfdc"></circle><circle r="5" cx="256.48" cy="516.8" fill="#d0dfdc"></circle><circle r="5" cx="209.54" cy="707.64" fill="#d0dfdc"></circle><circle r="5" cx="380.72" cy="641.84" fill="#d0dfdc"></circle><circle r="5" cx="665.69" cy="488.66" fill="#d0dfdc"></circle><circle r="5" cx="662.6" cy="687.78" fill="#d0dfdc"></circle><circle r="5" cx="832.43" cy="528.7" fill="#d0dfdc"></circle><circle r="5" cx="811.57" cy="646.8" fill="#d0dfdc"></circle><circle r="5" cx="939.15" cy="494.95" fill="#d0dfdc"></circle><circle r="5" cx="982.34" cy="669.48" fill="#d0dfdc"></circle><circle r="5" cx="1117.59" cy="354.28" fill="#d0dfdc"></circle><circle r="5" cx="1096.49" cy="542.24" fill="#d0dfdc"></circle><circle r="5" cx="1105.08" cy="682.69" fill="#d0dfdc"></circle><circle r="5" cx="1266.96" cy="-100.31" fill="#d0dfdc"></circle><circle r="5" cx="1270.4" cy="96.25" fill="#d0dfdc"></circle><circle r="5" cx="1258.54" cy="203.38" fill="#d0dfdc"></circle><circle r="5" cx="1262.61" cy="490.24" fill="#d0dfdc"></circle><circle r="5" cx="1311.01" cy="645.27" fill="#d0dfdc"></circle><circle r="5" cx="1444.22" cy="-84.71" fill="#d0dfdc"></circle><circle r="5" cx="1452.14" cy="253.7" fill="#d0dfdc"></circle><circle r="5" cx="1404.8" cy="377.86" fill="#d0dfdc"></circle><circle r="5" cx="1397.62" cy="646.64" fill="#d0dfdc"></circle><circle r="5" cx="1569.23" cy="-99.55" fill="#d0dfdc"></circle><circle r="5" cx="1602.74" cy="61.06" fill="#d0dfdc"></circle><circle r="5" cx="1578.92" cy="211.23" fill="#d0dfdc"></circle><circle r="5" cx="1552.81" cy="403.92" fill="#d0dfdc"></circle><circle r="5" cx="1599.15" cy="508.31" fill="#d0dfdc"></circle><circle r="5" cx="1578.05" cy="676.73" fill="#d0dfdc"></circle></g><defs><mask id="SvgjsMask3661"><rect width="1440" height="560" fill="#ffffff"></rect></mask><linearGradient x1="15.28%" y1="-39.29%" x2="84.72%" y2="139.29%" gradientUnits="userSpaceOnUse" id="SvgjsLinearGradient3662"><stop stop-color="rgba(16, 19, 22, 1)" offset="0"></stop><stop stop-color="rgba(14, 42, 71, 1)" offset="1"></stop></linearGradient><radialGradient id="SvgjsRadialGradient3663"><stop stop-color="#ffffff" offset="0.1"></stop><stop stop-color="rgba(160, 190, 184, 1)" offset="0.2"></stop><stop stop-color="rgba(160, 190, 184, 0)" offset="1"></stop></radialGradient></defs></svg>